solid Tubo L1_Predeterminado_sldprt
   facet normal -5.651454e-002 0.000000e+000 9.984018e-001
      outer loop
         vertex -6.123234e-016 2.260000e+002 -2.500000e+000
         vertex -6.123234e-016 0.000000e+000 -2.500000e+000
         vertex 4.225020e-001 2.260000e+002 -2.464040e+000
      endloop
   endfacet
   facet normal -1.130291e-001 0.000000e+000 9.935917e-001
      outer loop
         vertex 4.225020e-001 2.260000e+002 -2.464040e+000
         vertex -6.123234e-016 0.000000e+000 -2.500000e+000
         vertex 4.225020e-001 0.000000e+000 -2.464040e+000
      endloop
   endfacet
   facet normal -2.244324e-001 0.000000e+000 9.744897e-001
      outer loop
         vertex 4.225020e-001 2.260000e+002 -2.464040e+000
         vertex 4.225020e-001 0.000000e+000 -2.464040e+000
         vertex 8.328495e-001 2.260000e+002 -2.357193e+000
      endloop
   endfacet
   facet normal -2.793211e-001 0.000000e+000 9.601977e-001
      outer loop
         vertex 8.328495e-001 2.260000e+002 -2.357193e+000
         vertex 4.225020e-001 0.000000e+000 -2.464040e+000
         vertex 8.328495e-001 0.000000e+000 -2.357193e+000
      endloop
   endfacet
   facet normal -3.858936e-001 0.000000e+000 9.225433e-001
      outer loop
         vertex 8.328495e-001 2.260000e+002 -2.357193e+000
         vertex 8.328495e-001 0.000000e+000 -2.357193e+000
         vertex 1.219237e+000 2.260000e+002 -2.182535e+000
      endloop
   endfacet
   facet normal -4.375775e-001 0.000000e+000 8.991807e-001
      outer loop
         vertex 1.219237e+000 2.260000e+002 -2.182535e+000
         vertex 8.328495e-001 0.000000e+000 -2.357193e+000
         vertex 1.219237e+000 0.000000e+000 -2.182535e+000
      endloop
   endfacet
   facet normal -5.362535e-001 0.000000e+000 8.440570e-001
      outer loop
         vertex 1.219237e+000 2.260000e+002 -2.182535e+000
         vertex 1.219237e+000 0.000000e+000 -2.182535e+000
         vertex 1.570550e+000 2.260000e+002 -1.945089e+000
      endloop
   endfacet
   facet normal -5.832456e-001 0.000000e+000 8.122959e-001
      outer loop
         vertex 1.570550e+000 2.260000e+002 -1.945089e+000
         vertex 1.219237e+000 0.000000e+000 -2.182535e+000
         vertex 1.570550e+000 0.000000e+000 -1.945089e+000
      endloop
   endfacet
   facet normal -6.711863e-001 0.000000e+000 7.412888e-001
      outer loop
         vertex 1.570550e+000 2.260000e+002 -1.945089e+000
         vertex 1.570550e+000 0.000000e+000 -1.945089e+000
         vertex 1.876681e+000 2.260000e+002 -1.651687e+000
      endloop
   endfacet
   facet normal -7.121348e-001 0.000000e+000 7.020428e-001
      outer loop
         vertex 1.876681e+000 2.260000e+002 -1.651687e+000
         vertex 1.570550e+000 0.000000e+000 -1.945089e+000
         vertex 1.876681e+000 0.000000e+000 -1.651687e+000
      endloop
   endfacet
   facet normal -7.868103e-001 0.000000e+000 6.171949e-001
      outer loop
         vertex 1.876681e+000 2.260000e+002 -1.651687e+000
         vertex 1.876681e+000 0.000000e+000 -1.651687e+000
         vertex 2.128823e+000 2.260000e+002 -1.310768e+000
      endloop
   endfacet
   facet normal -8.205372e-001 0.000000e+000 5.715931e-001
      outer loop
         vertex 2.128823e+000 2.260000e+002 -1.310768e+000
         vertex 1.876681e+000 0.000000e+000 -1.651687e+000
         vertex 2.128823e+000 0.000000e+000 -1.310768e+000
      endloop
   endfacet
   facet normal -8.797992e-001 0.000000e+000 4.753455e-001
      outer loop
         vertex 2.128823e+000 2.260000e+002 -1.310768e+000
         vertex 2.128823e+000 0.000000e+000 -1.310768e+000
         vertex 2.319723e+000 2.260000e+002 -9.321412e-001
      endloop
   endfacet
   facet normal -9.053342e-001 0.000000e+000 4.246998e-001
      outer loop
         vertex 2.319723e+000 2.260000e+002 -9.321412e-001
         vertex 2.128823e+000 0.000000e+000 -1.310768e+000
         vertex 2.319723e+000 0.000000e+000 -9.321412e-001
      endloop
   endfacet
   facet normal -9.474779e-001 0.000000e+000 3.198213e-001
      outer loop
         vertex 2.319723e+000 2.260000e+002 -9.321412e-001
         vertex 2.319723e+000 0.000000e+000 -9.321412e-001
         vertex 2.443888e+000 2.260000e+002 -5.266982e-001
      endloop
   endfacet
   facet normal -9.640865e-001 0.000000e+000 2.655886e-001
      outer loop
         vertex 2.443888e+000 2.260000e+002 -5.266982e-001
         vertex 2.319723e+000 0.000000e+000 -9.321412e-001
         vertex 2.443888e+000 0.000000e+000 -5.266982e-001
      endloop
   endfacet
   facet normal -9.878993e-001 0.000000e+000 1.550965e-001
      outer loop
         vertex 2.443888e+000 2.260000e+002 -5.266982e-001
         vertex 2.443888e+000 0.000000e+000 -5.266982e-001
         vertex 2.497747e+000 2.260000e+002 -1.061030e-001
      endloop
   endfacet
   facet normal -9.951036e-001 0.000000e+000 9.883699e-002
      outer loop
         vertex 2.497747e+000 2.260000e+002 -1.061030e-001
         vertex 2.443888e+000 0.000000e+000 -5.266982e-001
         vertex 2.497747e+000 0.000000e+000 -1.061030e-001
      endloop
   endfacet
   facet normal -9.999007e-001 0.000000e+000 -1.409025e-002
      outer loop
         vertex 2.497747e+000 2.260000e+002 -1.061030e-001
         vertex 2.497747e+000 0.000000e+000 -1.061030e-001
         vertex 2.479751e+000 2.260000e+002 3.175445e-001
      endloop
   endfacet
   facet normal -9.974935e-001 0.000000e+000 -7.075802e-002
      outer loop
         vertex 2.479751e+000 2.260000e+002 3.175445e-001
         vertex 2.497747e+000 0.000000e+000 -1.061030e-001
         vertex 2.479751e+000 0.000000e+000 3.175445e-001
      endloop
   endfacet
   facet normal -9.831368e-001 0.000000e+000 -1.828716e-001
      outer loop
         vertex 2.479751e+000 2.260000e+002 3.175445e-001
         vertex 2.479751e+000 0.000000e+000 3.175445e-001
         vertex 2.390417e+000 2.260000e+002 7.320569e-001
      endloop
   endfacet
   facet normal -9.711873e-001 0.000000e+000 -2.383175e-001
      outer loop
         vertex 2.390417e+000 2.260000e+002 7.320569e-001
         vertex 2.479751e+000 0.000000e+000 3.175445e-001
         vertex 2.390417e+000 0.000000e+000 7.320569e-001
      endloop
   endfacet
   facet normal -9.380898e-001 0.000000e+000 -3.463921e-001
      outer loop
         vertex 2.390417e+000 2.260000e+002 7.320569e-001
         vertex 2.390417e+000 0.000000e+000 7.320569e-001
         vertex 2.232315e+000 2.260000e+002 1.125509e+000
      endloop
   endfacet
   facet normal -9.169418e-001 0.000000e+000 -3.990209e-001
      outer loop
         vertex 2.232315e+000 2.260000e+002 1.125509e+000
         vertex 2.390417e+000 0.000000e+000 7.320569e-001
         vertex 2.232315e+000 0.000000e+000 1.125509e+000
      endloop
   endfacet
   facet normal -8.660557e-001 0.000000e+000 -4.999475e-001
      outer loop
         vertex 2.232315e+000 2.260000e+002 1.125509e+000
         vertex 2.232315e+000 0.000000e+000 1.125509e+000
         vertex 2.009993e+000 2.260000e+002 1.486583e+000
      endloop
   endfacet
   facet normal -8.363176e-001 0.000000e+000 -5.482453e-001
      outer loop
         vertex 2.009993e+000 2.260000e+002 1.486583e+000
         vertex 2.232315e+000 0.000000e+000 1.125509e+000
         vertex 2.009993e+000 0.000000e+000 1.486583e+000
      endloop
   endfacet
   facet normal -7.691067e-001 0.000000e+000 -6.391203e-001
      outer loop
         vertex 2.009993e+000 2.260000e+002 1.486583e+000
         vertex 2.009993e+000 0.000000e+000 1.486583e+000
         vertex 1.729847e+000 2.260000e+002 1.804890e+000
      endloop
   endfacet
   facet normal -7.316340e-001 0.000000e+000 -6.816977e-001
      outer loop
         vertex 1.729847e+000 2.260000e+002 1.804890e+000
         vertex 2.009993e+000 0.000000e+000 1.486583e+000
         vertex 1.729847e+000 0.000000e+000 1.804890e+000
      endloop
   endfacet
   facet normal -6.500320e-001 0.000000e+000 -7.599069e-001
      outer loop
         vertex 1.729847e+000 2.260000e+002 1.804890e+000
         vertex 1.729847e+000 0.000000e+000 1.804890e+000
         vertex 1.399937e+000 2.260000e+002 2.071274e+000
      endloop
   endfacet
   facet normal -6.059027e-001 0.000000e+000 -7.955388e-001
      outer loop
         vertex 1.399937e+000 2.260000e+002 2.071274e+000
         vertex 1.729847e+000 0.000000e+000 1.804890e+000
         vertex 1.399937e+000 0.000000e+000 2.071274e+000
      endloop
   endfacet
   facet normal -5.122570e-001 0.000000e+000 -8.588322e-001
      outer loop
         vertex 1.399937e+000 2.260000e+002 2.071274e+000
         vertex 1.399937e+000 0.000000e+000 2.071274e+000
         vertex 1.029753e+000 2.260000e+002 2.278071e+000
      endloop
   endfacet
   facet normal -4.627406e-001 0.000000e+000 -8.864937e-001
      outer loop
         vertex 1.029753e+000 2.260000e+002 2.278071e+000
         vertex 1.399937e+000 0.000000e+000 2.071274e+000
         vertex 1.029753e+000 0.000000e+000 2.278071e+000
      endloop
   endfacet
   facet normal -3.597453e-001 0.000000e+000 -9.330506e-001
      outer loop
         vertex 1.029753e+000 2.260000e+002 2.278071e+000
         vertex 1.029753e+000 0.000000e+000 2.278071e+000
         vertex 6.299452e-001 2.260000e+002 2.419332e+000
      endloop
   endfacet
   facet normal -3.062663e-001 0.000000e+000 -9.519458e-001
      outer loop
         vertex 6.299452e-001 2.260000e+002 2.419332e+000
         vertex 1.029753e+000 0.000000e+000 2.278071e+000
         vertex 6.299452e-001 0.000000e+000 2.419332e+000
      endloop
   endfacet
   facet normal -1.968844e-001 0.000000e+000 -9.804267e-001
      outer loop
         vertex 6.299452e-001 2.260000e+002 2.419332e+000
         vertex 6.299452e-001 0.000000e+000 2.419332e+000
         vertex 2.120148e-001 2.260000e+002 2.490994e+000
      endloop
   endfacet
   facet normal -1.409813e-001 0.000000e+000 -9.900123e-001
      outer loop
         vertex 2.120148e-001 2.260000e+002 2.490994e+000
         vertex 6.299452e-001 0.000000e+000 2.419332e+000
         vertex 2.120148e-001 0.000000e+000 2.490994e+000
      endloop
   endfacet
   facet normal -5.658260e-002 0.000000e+000 -9.983979e-001
      outer loop
         vertex 2.120148e-001 2.260000e+002 2.490994e+000
         vertex 2.120148e-001 0.000000e+000 2.490994e+000
         vertex 3.061617e-016 2.260000e+002 2.500000e+000
      endloop
   endfacet
   facet normal -2.829130e-002 0.000000e+000 -9.995998e-001
      outer loop
         vertex 3.061617e-016 2.260000e+002 2.500000e+000
         vertex 2.120148e-001 0.000000e+000 2.490994e+000
         vertex 9.184852e-016 0.000000e+000 2.500000e+000
      endloop
   endfacet
   facet normal 2.829130e-002 0.000000e+000 -9.995998e-001
      outer loop
         vertex 3.061617e-016 2.260000e+002 2.500000e+000
         vertex 9.184852e-016 0.000000e+000 2.500000e+000
         vertex -2.120148e-001 2.260000e+002 2.490994e+000
      endloop
   endfacet
   facet normal 5.658260e-002 0.000000e+000 -9.983979e-001
      outer loop
         vertex -2.120148e-001 2.260000e+002 2.490994e+000
         vertex 9.184852e-016 0.000000e+000 2.500000e+000
         vertex -2.120148e-001 0.000000e+000 2.490994e+000
      endloop
   endfacet
   facet normal 1.409813e-001 0.000000e+000 -9.900123e-001
      outer loop
         vertex -2.120148e-001 2.260000e+002 2.490994e+000
         vertex -2.120148e-001 0.000000e+000 2.490994e+000
         vertex -6.299452e-001 2.260000e+002 2.419332e+000
      endloop
   endfacet
   facet normal 1.968844e-001 0.000000e+000 -9.804267e-001
      outer loop
         vertex -6.299452e-001 2.260000e+002 2.419332e+000
         vertex -2.120148e-001 0.000000e+000 2.490994e+000
         vertex -6.299452e-001 0.000000e+000 2.419332e+000
      endloop
   endfacet
   facet normal 3.062663e-001 0.000000e+000 -9.519458e-001
      outer loop
         vertex -6.299452e-001 2.260000e+002 2.419332e+000
         vertex -6.299452e-001 0.000000e+000 2.419332e+000
         vertex -1.029753e+000 2.260000e+002 2.278071e+000
      endloop
   endfacet
   facet normal 3.597453e-001 0.000000e+000 -9.330506e-001
      outer loop
         vertex -1.029753e+000 2.260000e+002 2.278071e+000
         vertex -6.299452e-001 0.000000e+000 2.419332e+000
         vertex -1.029753e+000 0.000000e+000 2.278071e+000
      endloop
   endfacet
   facet normal 4.627406e-001 0.000000e+000 -8.864937e-001
      outer loop
         vertex -1.029753e+000 2.260000e+002 2.278071e+000
         vertex -1.029753e+000 0.000000e+000 2.278071e+000
         vertex -1.399937e+000 2.260000e+002 2.071274e+000
      endloop
   endfacet
   facet normal 5.122570e-001 0.000000e+000 -8.588322e-001
      outer loop
         vertex -1.399937e+000 2.260000e+002 2.071274e+000
         vertex -1.029753e+000 0.000000e+000 2.278071e+000
         vertex -1.399937e+000 0.000000e+000 2.071274e+000
      endloop
   endfacet
   facet normal 6.059027e-001 0.000000e+000 -7.955388e-001
      outer loop
         vertex -1.399937e+000 2.260000e+002 2.071274e+000
         vertex -1.399937e+000 0.000000e+000 2.071274e+000
         vertex -1.729847e+000 2.260000e+002 1.804890e+000
      endloop
   endfacet
   facet normal 6.500320e-001 0.000000e+000 -7.599069e-001
      outer loop
         vertex -1.729847e+000 2.260000e+002 1.804890e+000
         vertex -1.399937e+000 0.000000e+000 2.071274e+000
         vertex -1.729847e+000 0.000000e+000 1.804890e+000
      endloop
   endfacet
   facet normal 7.316340e-001 0.000000e+000 -6.816977e-001
      outer loop
         vertex -1.729847e+000 2.260000e+002 1.804890e+000
         vertex -1.729847e+000 0.000000e+000 1.804890e+000
         vertex -2.009993e+000 2.260000e+002 1.486583e+000
      endloop
   endfacet
   facet normal 7.691067e-001 0.000000e+000 -6.391203e-001
      outer loop
         vertex -2.009993e+000 2.260000e+002 1.486583e+000
         vertex -1.729847e+000 0.000000e+000 1.804890e+000
         vertex -2.009993e+000 0.000000e+000 1.486583e+000
      endloop
   endfacet
   facet normal 8.363176e-001 0.000000e+000 -5.482453e-001
      outer loop
         vertex -2.009993e+000 2.260000e+002 1.486583e+000
         vertex -2.009993e+000 0.000000e+000 1.486583e+000
         vertex -2.232315e+000 2.260000e+002 1.125509e+000
      endloop
   endfacet
   facet normal 8.660557e-001 0.000000e+000 -4.999475e-001
      outer loop
         vertex -2.232315e+000 2.260000e+002 1.125509e+000
         vertex -2.009993e+000 0.000000e+000 1.486583e+000
         vertex -2.232315e+000 0.000000e+000 1.125509e+000
      endloop
   endfacet
   facet normal 9.169418e-001 0.000000e+000 -3.990209e-001
      outer loop
         vertex -2.232315e+000 2.260000e+002 1.125509e+000
         vertex -2.232315e+000 0.000000e+000 1.125509e+000
         vertex -2.390417e+000 2.260000e+002 7.320569e-001
      endloop
   endfacet
   facet normal 9.380898e-001 0.000000e+000 -3.463921e-001
      outer loop
         vertex -2.390417e+000 2.260000e+002 7.320569e-001
         vertex -2.232315e+000 0.000000e+000 1.125509e+000
         vertex -2.390417e+000 0.000000e+000 7.320569e-001
      endloop
   endfacet
   facet normal 9.711873e-001 0.000000e+000 -2.383175e-001
      outer loop
         vertex -2.390417e+000 2.260000e+002 7.320569e-001
         vertex -2.390417e+000 0.000000e+000 7.320569e-001
         vertex -2.479751e+000 2.260000e+002 3.175445e-001
      endloop
   endfacet
   facet normal 9.831368e-001 0.000000e+000 -1.828716e-001
      outer loop
         vertex -2.479751e+000 2.260000e+002 3.175445e-001
         vertex -2.390417e+000 0.000000e+000 7.320569e-001
         vertex -2.479751e+000 0.000000e+000 3.175445e-001
      endloop
   endfacet
   facet normal 9.974935e-001 0.000000e+000 -7.075802e-002
      outer loop
         vertex -2.479751e+000 2.260000e+002 3.175445e-001
         vertex -2.479751e+000 0.000000e+000 3.175445e-001
         vertex -2.497747e+000 2.260000e+002 -1.061030e-001
      endloop
   endfacet
   facet normal 9.999007e-001 0.000000e+000 -1.409025e-002
      outer loop
         vertex -2.497747e+000 2.260000e+002 -1.061030e-001
         vertex -2.479751e+000 0.000000e+000 3.175445e-001
         vertex -2.497747e+000 0.000000e+000 -1.061030e-001
      endloop
   endfacet
   facet normal 9.951036e-001 0.000000e+000 9.883699e-002
      outer loop
         vertex -2.497747e+000 2.260000e+002 -1.061030e-001
         vertex -2.497747e+000 0.000000e+000 -1.061030e-001
         vertex -2.443888e+000 2.260000e+002 -5.266982e-001
      endloop
   endfacet
   facet normal 9.878993e-001 0.000000e+000 1.550965e-001
      outer loop
         vertex -2.443888e+000 2.260000e+002 -5.266982e-001
         vertex -2.497747e+000 0.000000e+000 -1.061030e-001
         vertex -2.443888e+000 0.000000e+000 -5.266982e-001
      endloop
   endfacet
   facet normal 9.640865e-001 0.000000e+000 2.655886e-001
      outer loop
         vertex -2.443888e+000 2.260000e+002 -5.266982e-001
         vertex -2.443888e+000 0.000000e+000 -5.266982e-001
         vertex -2.319723e+000 2.260000e+002 -9.321412e-001
      endloop
   endfacet
   facet normal 9.474779e-001 0.000000e+000 3.198213e-001
      outer loop
         vertex -2.319723e+000 2.260000e+002 -9.321412e-001
         vertex -2.443888e+000 0.000000e+000 -5.266982e-001
         vertex -2.319723e+000 0.000000e+000 -9.321412e-001
      endloop
   endfacet
   facet normal 9.053342e-001 0.000000e+000 4.246998e-001
      outer loop
         vertex -2.319723e+000 2.260000e+002 -9.321412e-001
         vertex -2.319723e+000 0.000000e+000 -9.321412e-001
         vertex -2.128823e+000 2.260000e+002 -1.310768e+000
      endloop
   endfacet
   facet normal 8.797992e-001 0.000000e+000 4.753455e-001
      outer loop
         vertex -2.128823e+000 2.260000e+002 -1.310768e+000
         vertex -2.319723e+000 0.000000e+000 -9.321412e-001
         vertex -2.128823e+000 0.000000e+000 -1.310768e+000
      endloop
   endfacet
   facet normal 8.205372e-001 0.000000e+000 5.715931e-001
      outer loop
         vertex -2.128823e+000 2.260000e+002 -1.310768e+000
         vertex -2.128823e+000 0.000000e+000 -1.310768e+000
         vertex -1.876681e+000 2.260000e+002 -1.651687e+000
      endloop
   endfacet
   facet normal 7.868103e-001 0.000000e+000 6.171949e-001
      outer loop
         vertex -1.876681e+000 2.260000e+002 -1.651687e+000
         vertex -2.128823e+000 0.000000e+000 -1.310768e+000
         vertex -1.876681e+000 0.000000e+000 -1.651687e+000
      endloop
   endfacet
   facet normal 7.121348e-001 0.000000e+000 7.020428e-001
      outer loop
         vertex -1.876681e+000 2.260000e+002 -1.651687e+000
         vertex -1.876681e+000 0.000000e+000 -1.651687e+000
         vertex -1.570550e+000 2.260000e+002 -1.945089e+000
      endloop
   endfacet
   facet normal 6.711863e-001 0.000000e+000 7.412888e-001
      outer loop
         vertex -1.570550e+000 2.260000e+002 -1.945089e+000
         vertex -1.876681e+000 0.000000e+000 -1.651687e+000
         vertex -1.570550e+000 0.000000e+000 -1.945089e+000
      endloop
   endfacet
   facet normal 5.832456e-001 0.000000e+000 8.122959e-001
      outer loop
         vertex -1.570550e+000 2.260000e+002 -1.945089e+000
         vertex -1.570550e+000 0.000000e+000 -1.945089e+000
         vertex -1.219237e+000 2.260000e+002 -2.182535e+000
      endloop
   endfacet
   facet normal 5.362535e-001 0.000000e+000 8.440570e-001
      outer loop
         vertex -1.219237e+000 2.260000e+002 -2.182535e+000
         vertex -1.570550e+000 0.000000e+000 -1.945089e+000
         vertex -1.219237e+000 0.000000e+000 -2.182535e+000
      endloop
   endfacet
   facet normal 4.375775e-001 0.000000e+000 8.991807e-001
      outer loop
         vertex -1.219237e+000 2.260000e+002 -2.182535e+000
         vertex -1.219237e+000 0.000000e+000 -2.182535e+000
         vertex -8.328495e-001 2.260000e+002 -2.357193e+000
      endloop
   endfacet
   facet normal 3.858936e-001 0.000000e+000 9.225433e-001
      outer loop
         vertex -8.328495e-001 2.260000e+002 -2.357193e+000
         vertex -1.219237e+000 0.000000e+000 -2.182535e+000
         vertex -8.328495e-001 0.000000e+000 -2.357193e+000
      endloop
   endfacet
   facet normal 2.793211e-001 0.000000e+000 9.601977e-001
      outer loop
         vertex -8.328495e-001 2.260000e+002 -2.357193e+000
         vertex -8.328495e-001 0.000000e+000 -2.357193e+000
         vertex -4.225020e-001 2.260000e+002 -2.464040e+000
      endloop
   endfacet
   facet normal 2.244324e-001 0.000000e+000 9.744897e-001
      outer loop
         vertex -4.225020e-001 2.260000e+002 -2.464040e+000
         vertex -8.328495e-001 0.000000e+000 -2.357193e+000
         vertex -4.225020e-001 0.000000e+000 -2.464040e+000
      endloop
   endfacet
   facet normal 1.130291e-001 0.000000e+000 9.935917e-001
      outer loop
         vertex -4.225020e-001 2.260000e+002 -2.464040e+000
         vertex -4.225020e-001 0.000000e+000 -2.464040e+000
         vertex -6.123234e-016 2.260000e+002 -2.500000e+000
      endloop
   endfacet
   facet normal 5.651454e-002 0.000000e+000 9.984018e-001
      outer loop
         vertex -6.123234e-016 2.260000e+002 -2.500000e+000
         vertex -4.225020e-001 0.000000e+000 -2.464040e+000
         vertex -6.123234e-016 0.000000e+000 -2.500000e+000
      endloop
   endfacet
   facet normal 2.829130e-002 0.000000e+000 9.995998e-001
      outer loop
         vertex 2.968207e-001 2.260000e+002 3.487391e+000
         vertex 1.285879e-015 2.260000e+002 3.500000e+000
         vertex 4.286264e-016 0.000000e+000 3.500000e+000
      endloop
   endfacet
   facet normal -2.829130e-002 0.000000e+000 9.995998e-001
      outer loop
         vertex 4.286264e-016 0.000000e+000 3.500000e+000
         vertex 1.285879e-015 2.260000e+002 3.500000e+000
         vertex -2.968207e-001 0.000000e+000 3.487391e+000
      endloop
   endfacet
   facet normal -5.658260e-002 0.000000e+000 9.983979e-001
      outer loop
         vertex 1.285879e-015 2.260000e+002 3.500000e+000
         vertex -2.968207e-001 2.260000e+002 3.487391e+000
         vertex -2.968207e-001 0.000000e+000 3.487391e+000
      endloop
   endfacet
   facet normal -1.409813e-001 0.000000e+000 9.900123e-001
      outer loop
         vertex -2.968207e-001 0.000000e+000 3.487391e+000
         vertex -2.968207e-001 2.260000e+002 3.487391e+000
         vertex -8.819232e-001 2.260000e+002 3.387065e+000
      endloop
   endfacet
   facet normal -1.968844e-001 0.000000e+000 9.804267e-001
      outer loop
         vertex -2.968207e-001 0.000000e+000 3.487391e+000
         vertex -8.819232e-001 2.260000e+002 3.387065e+000
         vertex -8.819232e-001 0.000000e+000 3.387065e+000
      endloop
   endfacet
   facet normal -3.062663e-001 0.000000e+000 9.519458e-001
      outer loop
         vertex -8.819232e-001 0.000000e+000 3.387065e+000
         vertex -8.819232e-001 2.260000e+002 3.387065e+000
         vertex -1.441654e+000 2.260000e+002 3.189300e+000
      endloop
   endfacet
   facet normal -3.597453e-001 0.000000e+000 9.330506e-001
      outer loop
         vertex -8.819232e-001 0.000000e+000 3.387065e+000
         vertex -1.441654e+000 2.260000e+002 3.189300e+000
         vertex -1.441654e+000 0.000000e+000 3.189300e+000
      endloop
   endfacet
   facet normal -4.627406e-001 0.000000e+000 8.864937e-001
      outer loop
         vertex -1.441654e+000 0.000000e+000 3.189300e+000
         vertex -1.441654e+000 2.260000e+002 3.189300e+000
         vertex -1.959912e+000 2.260000e+002 2.899784e+000
      endloop
   endfacet
   facet normal -5.122570e-001 0.000000e+000 8.588322e-001
      outer loop
         vertex -1.441654e+000 0.000000e+000 3.189300e+000
         vertex -1.959912e+000 2.260000e+002 2.899784e+000
         vertex -1.959912e+000 0.000000e+000 2.899784e+000
      endloop
   endfacet
   facet normal -6.059027e-001 0.000000e+000 7.955388e-001
      outer loop
         vertex -1.959912e+000 0.000000e+000 2.899784e+000
         vertex -1.959912e+000 2.260000e+002 2.899784e+000
         vertex -2.421786e+000 2.260000e+002 2.526846e+000
      endloop
   endfacet
   facet normal -6.500320e-001 0.000000e+000 7.599069e-001
      outer loop
         vertex -1.959912e+000 0.000000e+000 2.899784e+000
         vertex -2.421786e+000 2.260000e+002 2.526846e+000
         vertex -2.421786e+000 0.000000e+000 2.526846e+000
      endloop
   endfacet
   facet normal -7.316340e-001 0.000000e+000 6.816977e-001
      outer loop
         vertex -2.421786e+000 0.000000e+000 2.526846e+000
         vertex -2.421786e+000 2.260000e+002 2.526846e+000
         vertex -2.813990e+000 2.260000e+002 2.081216e+000
      endloop
   endfacet
   facet normal -7.691067e-001 0.000000e+000 6.391203e-001
      outer loop
         vertex -2.421786e+000 0.000000e+000 2.526846e+000
         vertex -2.813990e+000 2.260000e+002 2.081216e+000
         vertex -2.813990e+000 0.000000e+000 2.081216e+000
      endloop
   endfacet
   facet normal -8.363176e-001 0.000000e+000 5.482453e-001
      outer loop
         vertex -2.813990e+000 0.000000e+000 2.081216e+000
         vertex -2.813990e+000 2.260000e+002 2.081216e+000
         vertex -3.125241e+000 2.260000e+002 1.575713e+000
      endloop
   endfacet
   facet normal -8.660557e-001 0.000000e+000 4.999475e-001
      outer loop
         vertex -2.813990e+000 0.000000e+000 2.081216e+000
         vertex -3.125241e+000 2.260000e+002 1.575713e+000
         vertex -3.125241e+000 0.000000e+000 1.575713e+000
      endloop
   endfacet
   facet normal -9.169418e-001 0.000000e+000 3.990209e-001
      outer loop
         vertex -3.125241e+000 0.000000e+000 1.575713e+000
         vertex -3.125241e+000 2.260000e+002 1.575713e+000
         vertex -3.346584e+000 2.260000e+002 1.024880e+000
      endloop
   endfacet
   facet normal -9.380898e-001 0.000000e+000 3.463921e-001
      outer loop
         vertex -3.125241e+000 0.000000e+000 1.575713e+000
         vertex -3.346584e+000 2.260000e+002 1.024880e+000
         vertex -3.346584e+000 0.000000e+000 1.024880e+000
      endloop
   endfacet
   facet normal -9.711873e-001 0.000000e+000 2.383175e-001
      outer loop
         vertex -3.346584e+000 0.000000e+000 1.024880e+000
         vertex -3.346584e+000 2.260000e+002 1.024880e+000
         vertex -3.471652e+000 2.260000e+002 4.445624e-001
      endloop
   endfacet
   facet normal -9.831368e-001 0.000000e+000 1.828716e-001
      outer loop
         vertex -3.346584e+000 0.000000e+000 1.024880e+000
         vertex -3.471652e+000 2.260000e+002 4.445624e-001
         vertex -3.471652e+000 0.000000e+000 4.445624e-001
      endloop
   endfacet
   facet normal -9.974935e-001 0.000000e+000 7.075802e-002
      outer loop
         vertex -3.471652e+000 0.000000e+000 4.445624e-001
         vertex -3.471652e+000 2.260000e+002 4.445624e-001
         vertex -3.496846e+000 2.260000e+002 -1.485442e-001
      endloop
   endfacet
   facet normal -9.999007e-001 0.000000e+000 1.409025e-002
      outer loop
         vertex -3.471652e+000 0.000000e+000 4.445624e-001
         vertex -3.496846e+000 2.260000e+002 -1.485442e-001
         vertex -3.496846e+000 0.000000e+000 -1.485442e-001
      endloop
   endfacet
   facet normal -9.951036e-001 0.000000e+000 -9.883699e-002
      outer loop
         vertex -3.496846e+000 0.000000e+000 -1.485442e-001
         vertex -3.496846e+000 2.260000e+002 -1.485442e-001
         vertex -3.421443e+000 2.260000e+002 -7.373775e-001
      endloop
   endfacet
   facet normal -9.878993e-001 0.000000e+000 -1.550965e-001
      outer loop
         vertex -3.496846e+000 0.000000e+000 -1.485442e-001
         vertex -3.421443e+000 2.260000e+002 -7.373775e-001
         vertex -3.421443e+000 0.000000e+000 -7.373775e-001
      endloop
   endfacet
   facet normal -9.640865e-001 0.000000e+000 -2.655886e-001
      outer loop
         vertex -3.421443e+000 0.000000e+000 -7.373775e-001
         vertex -3.421443e+000 2.260000e+002 -7.373775e-001
         vertex -3.247612e+000 2.260000e+002 -1.304998e+000
      endloop
   endfacet
   facet normal -9.474779e-001 0.000000e+000 -3.198213e-001
      outer loop
         vertex -3.421443e+000 0.000000e+000 -7.373775e-001
         vertex -3.247612e+000 2.260000e+002 -1.304998e+000
         vertex -3.247612e+000 0.000000e+000 -1.304998e+000
      endloop
   endfacet
   facet normal -9.053342e-001 0.000000e+000 -4.246998e-001
      outer loop
         vertex -3.247612e+000 0.000000e+000 -1.304998e+000
         vertex -3.247612e+000 2.260000e+002 -1.304998e+000
         vertex -2.980352e+000 2.260000e+002 -1.835075e+000
      endloop
   endfacet
   facet normal -8.797992e-001 0.000000e+000 -4.753455e-001
      outer loop
         vertex -3.247612e+000 0.000000e+000 -1.304998e+000
         vertex -2.980352e+000 2.260000e+002 -1.835075e+000
         vertex -2.980352e+000 0.000000e+000 -1.835075e+000
      endloop
   endfacet
   facet normal -8.205372e-001 0.000000e+000 -5.715931e-001
      outer loop
         vertex -2.980352e+000 0.000000e+000 -1.835075e+000
         vertex -2.980352e+000 2.260000e+002 -1.835075e+000
         vertex -2.627353e+000 2.260000e+002 -2.312361e+000
      endloop
   endfacet
   facet normal -7.868103e-001 0.000000e+000 -6.171949e-001
      outer loop
         vertex -2.980352e+000 0.000000e+000 -1.835075e+000
         vertex -2.627353e+000 2.260000e+002 -2.312361e+000
         vertex -2.627353e+000 0.000000e+000 -2.312361e+000
      endloop
   endfacet
   facet normal -7.121348e-001 0.000000e+000 -7.020428e-001
      outer loop
         vertex -2.627353e+000 0.000000e+000 -2.312361e+000
         vertex -2.627353e+000 2.260000e+002 -2.312361e+000
         vertex -2.198770e+000 2.260000e+002 -2.723125e+000
      endloop
   endfacet
   facet normal -6.711863e-001 0.000000e+000 -7.412888e-001
      outer loop
         vertex -2.627353e+000 0.000000e+000 -2.312361e+000
         vertex -2.198770e+000 2.260000e+002 -2.723125e+000
         vertex -2.198770e+000 0.000000e+000 -2.723125e+000
      endloop
   endfacet
   facet normal -5.832456e-001 0.000000e+000 -8.122959e-001
      outer loop
         vertex -2.198770e+000 0.000000e+000 -2.723125e+000
         vertex -2.198770e+000 2.260000e+002 -2.723125e+000
         vertex -1.706932e+000 2.260000e+002 -3.055549e+000
      endloop
   endfacet
   facet normal -5.362535e-001 0.000000e+000 -8.440570e-001
      outer loop
         vertex -2.198770e+000 0.000000e+000 -2.723125e+000
         vertex -1.706932e+000 2.260000e+002 -3.055549e+000
         vertex -1.706932e+000 0.000000e+000 -3.055549e+000
      endloop
   endfacet
   facet normal -4.375775e-001 0.000000e+000 -8.991807e-001
      outer loop
         vertex -1.706932e+000 0.000000e+000 -3.055549e+000
         vertex -1.706932e+000 2.260000e+002 -3.055549e+000
         vertex -1.165989e+000 2.260000e+002 -3.300071e+000
      endloop
   endfacet
   facet normal -3.858936e-001 0.000000e+000 -9.225433e-001
      outer loop
         vertex -1.706932e+000 0.000000e+000 -3.055549e+000
         vertex -1.165989e+000 2.260000e+002 -3.300071e+000
         vertex -1.165989e+000 0.000000e+000 -3.300071e+000
      endloop
   endfacet
   facet normal -2.793211e-001 0.000000e+000 -9.601977e-001
      outer loop
         vertex -1.165989e+000 0.000000e+000 -3.300071e+000
         vertex -1.165989e+000 2.260000e+002 -3.300071e+000
         vertex -5.915028e-001 2.260000e+002 -3.449656e+000
      endloop
   endfacet
   facet normal -2.244324e-001 0.000000e+000 -9.744897e-001
      outer loop
         vertex -1.165989e+000 0.000000e+000 -3.300071e+000
         vertex -5.915028e-001 2.260000e+002 -3.449656e+000
         vertex -5.915028e-001 0.000000e+000 -3.449656e+000
      endloop
   endfacet
   facet normal -1.130291e-001 0.000000e+000 -9.935917e-001
      outer loop
         vertex -5.915028e-001 0.000000e+000 -3.449656e+000
         vertex -5.915028e-001 2.260000e+002 -3.449656e+000
         vertex 0.000000e+000 2.260000e+002 -3.500000e+000
      endloop
   endfacet
   facet normal -5.651454e-002 0.000000e+000 -9.984018e-001
      outer loop
         vertex -5.915028e-001 0.000000e+000 -3.449656e+000
         vertex 0.000000e+000 2.260000e+002 -3.500000e+000
         vertex 0.000000e+000 0.000000e+000 -3.500000e+000
      endloop
   endfacet
   facet normal 5.651454e-002 0.000000e+000 -9.984018e-001
      outer loop
         vertex 0.000000e+000 0.000000e+000 -3.500000e+000
         vertex 0.000000e+000 2.260000e+002 -3.500000e+000
         vertex 5.915028e-001 2.260000e+002 -3.449656e+000
      endloop
   endfacet
   facet normal 1.130291e-001 0.000000e+000 -9.935917e-001
      outer loop
         vertex 0.000000e+000 0.000000e+000 -3.500000e+000
         vertex 5.915028e-001 2.260000e+002 -3.449656e+000
         vertex 5.915028e-001 0.000000e+000 -3.449656e+000
      endloop
   endfacet
   facet normal 2.244324e-001 0.000000e+000 -9.744897e-001
      outer loop
         vertex 5.915028e-001 0.000000e+000 -3.449656e+000
         vertex 5.915028e-001 2.260000e+002 -3.449656e+000
         vertex 1.165989e+000 2.260000e+002 -3.300071e+000
      endloop
   endfacet
   facet normal 2.793211e-001 0.000000e+000 -9.601977e-001
      outer loop
         vertex 5.915028e-001 0.000000e+000 -3.449656e+000
         vertex 1.165989e+000 2.260000e+002 -3.300071e+000
         vertex 1.165989e+000 0.000000e+000 -3.300071e+000
      endloop
   endfacet
   facet normal 3.858936e-001 0.000000e+000 -9.225433e-001
      outer loop
         vertex 1.165989e+000 0.000000e+000 -3.300071e+000
         vertex 1.165989e+000 2.260000e+002 -3.300071e+000
         vertex 1.706932e+000 2.260000e+002 -3.055549e+000
      endloop
   endfacet
   facet normal 4.375775e-001 0.000000e+000 -8.991807e-001
      outer loop
         vertex 1.165989e+000 0.000000e+000 -3.300071e+000
         vertex 1.706932e+000 2.260000e+002 -3.055549e+000
         vertex 1.706932e+000 0.000000e+000 -3.055549e+000
      endloop
   endfacet
   facet normal 5.362535e-001 0.000000e+000 -8.440570e-001
      outer loop
         vertex 1.706932e+000 0.000000e+000 -3.055549e+000
         vertex 1.706932e+000 2.260000e+002 -3.055549e+000
         vertex 2.198770e+000 2.260000e+002 -2.723125e+000
      endloop
   endfacet
   facet normal 5.832456e-001 0.000000e+000 -8.122959e-001
      outer loop
         vertex 1.706932e+000 0.000000e+000 -3.055549e+000
         vertex 2.198770e+000 2.260000e+002 -2.723125e+000
         vertex 2.198770e+000 0.000000e+000 -2.723125e+000
      endloop
   endfacet
   facet normal 6.711863e-001 0.000000e+000 -7.412888e-001
      outer loop
         vertex 2.198770e+000 0.000000e+000 -2.723125e+000
         vertex 2.198770e+000 2.260000e+002 -2.723125e+000
         vertex 2.627353e+000 2.260000e+002 -2.312361e+000
      endloop
   endfacet
   facet normal 7.121348e-001 0.000000e+000 -7.020428e-001
      outer loop
         vertex 2.198770e+000 0.000000e+000 -2.723125e+000
         vertex 2.627353e+000 2.260000e+002 -2.312361e+000
         vertex 2.627353e+000 0.000000e+000 -2.312361e+000
      endloop
   endfacet
   facet normal 7.868103e-001 0.000000e+000 -6.171949e-001
      outer loop
         vertex 2.627353e+000 0.000000e+000 -2.312361e+000
         vertex 2.627353e+000 2.260000e+002 -2.312361e+000
         vertex 2.980352e+000 2.260000e+002 -1.835075e+000
      endloop
   endfacet
   facet normal 8.205372e-001 0.000000e+000 -5.715931e-001
      outer loop
         vertex 2.627353e+000 0.000000e+000 -2.312361e+000
         vertex 2.980352e+000 2.260000e+002 -1.835075e+000
         vertex 2.980352e+000 0.000000e+000 -1.835075e+000
      endloop
   endfacet
   facet normal 8.797992e-001 0.000000e+000 -4.753455e-001
      outer loop
         vertex 2.980352e+000 0.000000e+000 -1.835075e+000
         vertex 2.980352e+000 2.260000e+002 -1.835075e+000
         vertex 3.247612e+000 2.260000e+002 -1.304998e+000
      endloop
   endfacet
   facet normal 9.053342e-001 0.000000e+000 -4.246998e-001
      outer loop
         vertex 2.980352e+000 0.000000e+000 -1.835075e+000
         vertex 3.247612e+000 2.260000e+002 -1.304998e+000
         vertex 3.247612e+000 0.000000e+000 -1.304998e+000
      endloop
   endfacet
   facet normal 9.474779e-001 0.000000e+000 -3.198213e-001
      outer loop
         vertex 3.247612e+000 0.000000e+000 -1.304998e+000
         vertex 3.247612e+000 2.260000e+002 -1.304998e+000
         vertex 3.421443e+000 2.260000e+002 -7.373775e-001
      endloop
   endfacet
   facet normal 9.640865e-001 0.000000e+000 -2.655886e-001
      outer loop
         vertex 3.247612e+000 0.000000e+000 -1.304998e+000
         vertex 3.421443e+000 2.260000e+002 -7.373775e-001
         vertex 3.421443e+000 0.000000e+000 -7.373775e-001
      endloop
   endfacet
   facet normal 9.878993e-001 0.000000e+000 -1.550965e-001
      outer loop
         vertex 3.421443e+000 0.000000e+000 -7.373775e-001
         vertex 3.421443e+000 2.260000e+002 -7.373775e-001
         vertex 3.496846e+000 2.260000e+002 -1.485442e-001
      endloop
   endfacet
   facet normal 9.951036e-001 0.000000e+000 -9.883699e-002
      outer loop
         vertex 3.421443e+000 0.000000e+000 -7.373775e-001
         vertex 3.496846e+000 2.260000e+002 -1.485442e-001
         vertex 3.496846e+000 0.000000e+000 -1.485442e-001
      endloop
   endfacet
   facet normal 9.999007e-001 0.000000e+000 1.409025e-002
      outer loop
         vertex 3.496846e+000 0.000000e+000 -1.485442e-001
         vertex 3.496846e+000 2.260000e+002 -1.485442e-001
         vertex 3.471652e+000 2.260000e+002 4.445624e-001
      endloop
   endfacet
   facet normal 9.974935e-001 0.000000e+000 7.075802e-002
      outer loop
         vertex 3.496846e+000 0.000000e+000 -1.485442e-001
         vertex 3.471652e+000 2.260000e+002 4.445624e-001
         vertex 3.471652e+000 0.000000e+000 4.445624e-001
      endloop
   endfacet
   facet normal 9.831368e-001 0.000000e+000 1.828716e-001
      outer loop
         vertex 3.471652e+000 0.000000e+000 4.445624e-001
         vertex 3.471652e+000 2.260000e+002 4.445624e-001
         vertex 3.346584e+000 2.260000e+002 1.024880e+000
      endloop
   endfacet
   facet normal 9.711873e-001 0.000000e+000 2.383175e-001
      outer loop
         vertex 3.471652e+000 0.000000e+000 4.445624e-001
         vertex 3.346584e+000 2.260000e+002 1.024880e+000
         vertex 3.346584e+000 0.000000e+000 1.024880e+000
      endloop
   endfacet
   facet normal 9.380898e-001 0.000000e+000 3.463921e-001
      outer loop
         vertex 3.346584e+000 0.000000e+000 1.024880e+000
         vertex 3.346584e+000 2.260000e+002 1.024880e+000
         vertex 3.125241e+000 2.260000e+002 1.575713e+000
      endloop
   endfacet
   facet normal 9.169418e-001 0.000000e+000 3.990209e-001
      outer loop
         vertex 3.346584e+000 0.000000e+000 1.024880e+000
         vertex 3.125241e+000 2.260000e+002 1.575713e+000
         vertex 3.125241e+000 0.000000e+000 1.575713e+000
      endloop
   endfacet
   facet normal 8.660557e-001 0.000000e+000 4.999475e-001
      outer loop
         vertex 3.125241e+000 0.000000e+000 1.575713e+000
         vertex 3.125241e+000 2.260000e+002 1.575713e+000
         vertex 2.813990e+000 2.260000e+002 2.081216e+000
      endloop
   endfacet
   facet normal 8.363176e-001 0.000000e+000 5.482453e-001
      outer loop
         vertex 3.125241e+000 0.000000e+000 1.575713e+000
         vertex 2.813990e+000 2.260000e+002 2.081216e+000
         vertex 2.813990e+000 0.000000e+000 2.081216e+000
      endloop
   endfacet
   facet normal 7.691067e-001 0.000000e+000 6.391203e-001
      outer loop
         vertex 2.813990e+000 0.000000e+000 2.081216e+000
         vertex 2.813990e+000 2.260000e+002 2.081216e+000
         vertex 2.421786e+000 2.260000e+002 2.526846e+000
      endloop
   endfacet
   facet normal 7.316340e-001 0.000000e+000 6.816977e-001
      outer loop
         vertex 2.813990e+000 0.000000e+000 2.081216e+000
         vertex 2.421786e+000 2.260000e+002 2.526846e+000
         vertex 2.421786e+000 0.000000e+000 2.526846e+000
      endloop
   endfacet
   facet normal 6.500320e-001 0.000000e+000 7.599069e-001
      outer loop
         vertex 2.421786e+000 0.000000e+000 2.526846e+000
         vertex 2.421786e+000 2.260000e+002 2.526846e+000
         vertex 1.959912e+000 2.260000e+002 2.899784e+000
      endloop
   endfacet
   facet normal 6.059027e-001 0.000000e+000 7.955388e-001
      outer loop
         vertex 2.421786e+000 0.000000e+000 2.526846e+000
         vertex 1.959912e+000 2.260000e+002 2.899784e+000
         vertex 1.959912e+000 0.000000e+000 2.899784e+000
      endloop
   endfacet
   facet normal 5.122570e-001 0.000000e+000 8.588322e-001
      outer loop
         vertex 1.959912e+000 0.000000e+000 2.899784e+000
         vertex 1.959912e+000 2.260000e+002 2.899784e+000
         vertex 1.441654e+000 2.260000e+002 3.189300e+000
      endloop
   endfacet
   facet normal 4.627406e-001 0.000000e+000 8.864937e-001
      outer loop
         vertex 1.959912e+000 0.000000e+000 2.899784e+000
         vertex 1.441654e+000 2.260000e+002 3.189300e+000
         vertex 1.441654e+000 0.000000e+000 3.189300e+000
      endloop
   endfacet
   facet normal 3.597453e-001 0.000000e+000 9.330506e-001
      outer loop
         vertex 1.441654e+000 0.000000e+000 3.189300e+000
         vertex 1.441654e+000 2.260000e+002 3.189300e+000
         vertex 8.819232e-001 2.260000e+002 3.387065e+000
      endloop
   endfacet
   facet normal 3.062663e-001 0.000000e+000 9.519458e-001
      outer loop
         vertex 1.441654e+000 0.000000e+000 3.189300e+000
         vertex 8.819232e-001 2.260000e+002 3.387065e+000
         vertex 8.819232e-001 0.000000e+000 3.387065e+000
      endloop
   endfacet
   facet normal 1.968844e-001 0.000000e+000 9.804267e-001
      outer loop
         vertex 8.819232e-001 0.000000e+000 3.387065e+000
         vertex 8.819232e-001 2.260000e+002 3.387065e+000
         vertex 2.968207e-001 2.260000e+002 3.487391e+000
      endloop
   endfacet
   facet normal 1.409813e-001 0.000000e+000 9.900123e-001
      outer loop
         vertex 8.819232e-001 0.000000e+000 3.387065e+000
         vertex 2.968207e-001 2.260000e+002 3.487391e+000
         vertex 2.968207e-001 0.000000e+000 3.487391e+000
      endloop
   endfacet
   facet normal 5.658260e-002 0.000000e+000 9.983979e-001
      outer loop
         vertex 2.968207e-001 0.000000e+000 3.487391e+000
         vertex 2.968207e-001 2.260000e+002 3.487391e+000
         vertex 4.286264e-016 0.000000e+000 3.500000e+000
      endloop
   endfacet
   facet normal 0.000000e+000 1.000000e+000 0.000000e+000
      outer loop
         vertex -1.876681e+000 2.260000e+002 -1.651687e+000
         vertex -2.627353e+000 2.260000e+002 -2.312361e+000
         vertex -2.128823e+000 2.260000e+002 -1.310768e+000
      endloop
   endfacet
   facet normal 0.000000e+000 1.000000e+000 0.000000e+000
      outer loop
         vertex -2.128823e+000 2.260000e+002 -1.310768e+000
         vertex -2.627353e+000 2.260000e+002 -2.312361e+000
         vertex -2.980352e+000 2.260000e+002 -1.835075e+000
      endloop
   endfacet
   facet normal 0.000000e+000 1.000000e+000 0.000000e+000
      outer loop
         vertex -2.128823e+000 2.260000e+002 -1.310768e+000
         vertex -2.980352e+000 2.260000e+002 -1.835075e+000
         vertex -2.319723e+000 2.260000e+002 -9.321412e-001
      endloop
   endfacet
   facet normal 0.000000e+000 1.000000e+000 0.000000e+000
      outer loop
         vertex -2.319723e+000 2.260000e+002 -9.321412e-001
         vertex -2.980352e+000 2.260000e+002 -1.835075e+000
         vertex -3.247612e+000 2.260000e+002 -1.304998e+000
      endloop
   endfacet
   facet normal 0.000000e+000 1.000000e+000 0.000000e+000
      outer loop
         vertex -2.319723e+000 2.260000e+002 -9.321412e-001
         vertex -3.247612e+000 2.260000e+002 -1.304998e+000
         vertex -2.443888e+000 2.260000e+002 -5.266982e-001
      endloop
   endfacet
   facet normal 0.000000e+000 1.000000e+000 0.000000e+000
      outer loop
         vertex -2.443888e+000 2.260000e+002 -5.266982e-001
         vertex -3.247612e+000 2.260000e+002 -1.304998e+000
         vertex -3.421443e+000 2.260000e+002 -7.373775e-001
      endloop
   endfacet
   facet normal 0.000000e+000 1.000000e+000 0.000000e+000
      outer loop
         vertex -2.443888e+000 2.260000e+002 -5.266982e-001
         vertex -3.421443e+000 2.260000e+002 -7.373775e-001
         vertex -2.497747e+000 2.260000e+002 -1.061030e-001
      endloop
   endfacet
   facet normal 0.000000e+000 1.000000e+000 0.000000e+000
      outer loop
         vertex -2.497747e+000 2.260000e+002 -1.061030e-001
         vertex -3.421443e+000 2.260000e+002 -7.373775e-001
         vertex -3.496846e+000 2.260000e+002 -1.485442e-001
      endloop
   endfacet
   facet normal 0.000000e+000 1.000000e+000 0.000000e+000
      outer loop
         vertex -2.497747e+000 2.260000e+002 -1.061030e-001
         vertex -3.496846e+000 2.260000e+002 -1.485442e-001
         vertex -2.479751e+000 2.260000e+002 3.175445e-001
      endloop
   endfacet
   facet normal 0.000000e+000 1.000000e+000 0.000000e+000
      outer loop
         vertex -2.479751e+000 2.260000e+002 3.175445e-001
         vertex -3.496846e+000 2.260000e+002 -1.485442e-001
         vertex -3.471652e+000 2.260000e+002 4.445624e-001
      endloop
   endfacet
   facet normal 0.000000e+000 1.000000e+000 0.000000e+000
      outer loop
         vertex -2.479751e+000 2.260000e+002 3.175445e-001
         vertex -3.471652e+000 2.260000e+002 4.445624e-001
         vertex -2.390417e+000 2.260000e+002 7.320569e-001
      endloop
   endfacet
   facet normal 0.000000e+000 1.000000e+000 0.000000e+000
      outer loop
         vertex -2.390417e+000 2.260000e+002 7.320569e-001
         vertex -3.471652e+000 2.260000e+002 4.445624e-001
         vertex -3.346584e+000 2.260000e+002 1.024880e+000
      endloop
   endfacet
   facet normal 0.000000e+000 1.000000e+000 0.000000e+000
      outer loop
         vertex -2.390417e+000 2.260000e+002 7.320569e-001
         vertex -3.346584e+000 2.260000e+002 1.024880e+000
         vertex -2.232315e+000 2.260000e+002 1.125509e+000
      endloop
   endfacet
   facet normal 0.000000e+000 1.000000e+000 0.000000e+000
      outer loop
         vertex -2.232315e+000 2.260000e+002 1.125509e+000
         vertex -3.346584e+000 2.260000e+002 1.024880e+000
         vertex -3.125241e+000 2.260000e+002 1.575713e+000
      endloop
   endfacet
   facet normal 0.000000e+000 1.000000e+000 0.000000e+000
      outer loop
         vertex -2.232315e+000 2.260000e+002 1.125509e+000
         vertex -3.125241e+000 2.260000e+002 1.575713e+000
         vertex -2.009993e+000 2.260000e+002 1.486583e+000
      endloop
   endfacet
   facet normal 0.000000e+000 1.000000e+000 0.000000e+000
      outer loop
         vertex -2.009993e+000 2.260000e+002 1.486583e+000
         vertex -3.125241e+000 2.260000e+002 1.575713e+000
         vertex -2.813990e+000 2.260000e+002 2.081216e+000
      endloop
   endfacet
   facet normal 0.000000e+000 1.000000e+000 0.000000e+000
      outer loop
         vertex -2.009993e+000 2.260000e+002 1.486583e+000
         vertex -2.813990e+000 2.260000e+002 2.081216e+000
         vertex -1.729847e+000 2.260000e+002 1.804890e+000
      endloop
   endfacet
   facet normal 0.000000e+000 1.000000e+000 0.000000e+000
      outer loop
         vertex -1.729847e+000 2.260000e+002 1.804890e+000
         vertex -2.813990e+000 2.260000e+002 2.081216e+000
         vertex -2.421786e+000 2.260000e+002 2.526846e+000
      endloop
   endfacet
   facet normal 0.000000e+000 1.000000e+000 0.000000e+000
      outer loop
         vertex -1.729847e+000 2.260000e+002 1.804890e+000
         vertex -2.421786e+000 2.260000e+002 2.526846e+000
         vertex -1.399937e+000 2.260000e+002 2.071274e+000
      endloop
   endfacet
   facet normal 0.000000e+000 1.000000e+000 0.000000e+000
      outer loop
         vertex -1.399937e+000 2.260000e+002 2.071274e+000
         vertex -2.421786e+000 2.260000e+002 2.526846e+000
         vertex -1.959912e+000 2.260000e+002 2.899784e+000
      endloop
   endfacet
   facet normal 0.000000e+000 1.000000e+000 0.000000e+000
      outer loop
         vertex -1.399937e+000 2.260000e+002 2.071274e+000
         vertex -1.959912e+000 2.260000e+002 2.899784e+000
         vertex -1.029753e+000 2.260000e+002 2.278071e+000
      endloop
   endfacet
   facet normal 0.000000e+000 1.000000e+000 0.000000e+000
      outer loop
         vertex -1.029753e+000 2.260000e+002 2.278071e+000
         vertex -1.959912e+000 2.260000e+002 2.899784e+000
         vertex -1.441654e+000 2.260000e+002 3.189300e+000
      endloop
   endfacet
   facet normal 0.000000e+000 1.000000e+000 0.000000e+000
      outer loop
         vertex -1.029753e+000 2.260000e+002 2.278071e+000
         vertex -1.441654e+000 2.260000e+002 3.189300e+000
         vertex -6.299452e-001 2.260000e+002 2.419332e+000
      endloop
   endfacet
   facet normal 0.000000e+000 1.000000e+000 0.000000e+000
      outer loop
         vertex -6.299452e-001 2.260000e+002 2.419332e+000
         vertex -1.441654e+000 2.260000e+002 3.189300e+000
         vertex -8.819232e-001 2.260000e+002 3.387065e+000
      endloop
   endfacet
   facet normal 0.000000e+000 1.000000e+000 0.000000e+000
      outer loop
         vertex -6.299452e-001 2.260000e+002 2.419332e+000
         vertex -8.819232e-001 2.260000e+002 3.387065e+000
         vertex -2.120148e-001 2.260000e+002 2.490994e+000
      endloop
   endfacet
   facet normal 0.000000e+000 1.000000e+000 0.000000e+000
      outer loop
         vertex -2.120148e-001 2.260000e+002 2.490994e+000
         vertex -8.819232e-001 2.260000e+002 3.387065e+000
         vertex -2.968207e-001 2.260000e+002 3.487391e+000
      endloop
   endfacet
   facet normal 0.000000e+000 1.000000e+000 0.000000e+000
      outer loop
         vertex -2.120148e-001 2.260000e+002 2.490994e+000
         vertex -2.968207e-001 2.260000e+002 3.487391e+000
         vertex 9.184852e-016 2.260000e+002 2.500000e+000
      endloop
   endfacet
   facet normal 0.000000e+000 1.000000e+000 0.000000e+000
      outer loop
         vertex 9.184852e-016 2.260000e+002 2.500000e+000
         vertex -2.968207e-001 2.260000e+002 3.487391e+000
         vertex 4.286264e-016 2.260000e+002 3.500000e+000
      endloop
   endfacet
   facet normal 0.000000e+000 1.000000e+000 0.000000e+000
      outer loop
         vertex 9.184852e-016 2.260000e+002 2.500000e+000
         vertex 4.286264e-016 2.260000e+002 3.500000e+000
         vertex 2.120148e-001 2.260000e+002 2.490994e+000
      endloop
   endfacet
   facet normal 0.000000e+000 1.000000e+000 0.000000e+000
      outer loop
         vertex 2.120148e-001 2.260000e+002 2.490994e+000
         vertex 4.286264e-016 2.260000e+002 3.500000e+000
         vertex 2.968207e-001 2.260000e+002 3.487391e+000
      endloop
   endfacet
   facet normal 0.000000e+000 1.000000e+000 0.000000e+000
      outer loop
         vertex 2.120148e-001 2.260000e+002 2.490994e+000
         vertex 2.968207e-001 2.260000e+002 3.487391e+000
         vertex 6.299452e-001 2.260000e+002 2.419332e+000
      endloop
   endfacet
   facet normal 0.000000e+000 1.000000e+000 0.000000e+000
      outer loop
         vertex 6.299452e-001 2.260000e+002 2.419332e+000
         vertex 2.968207e-001 2.260000e+002 3.487391e+000
         vertex 8.819232e-001 2.260000e+002 3.387065e+000
      endloop
   endfacet
   facet normal 0.000000e+000 1.000000e+000 0.000000e+000
      outer loop
         vertex 6.299452e-001 2.260000e+002 2.419332e+000
         vertex 8.819232e-001 2.260000e+002 3.387065e+000
         vertex 1.029753e+000 2.260000e+002 2.278071e+000
      endloop
   endfacet
   facet normal 0.000000e+000 1.000000e+000 0.000000e+000
      outer loop
         vertex 1.029753e+000 2.260000e+002 2.278071e+000
         vertex 8.819232e-001 2.260000e+002 3.387065e+000
         vertex 1.441654e+000 2.260000e+002 3.189300e+000
      endloop
   endfacet
   facet normal 0.000000e+000 1.000000e+000 0.000000e+000
      outer loop
         vertex 1.029753e+000 2.260000e+002 2.278071e+000
         vertex 1.441654e+000 2.260000e+002 3.189300e+000
         vertex 1.399937e+000 2.260000e+002 2.071274e+000
      endloop
   endfacet
   facet normal 0.000000e+000 1.000000e+000 0.000000e+000
      outer loop
         vertex 1.399937e+000 2.260000e+002 2.071274e+000
         vertex 1.441654e+000 2.260000e+002 3.189300e+000
         vertex 1.959912e+000 2.260000e+002 2.899784e+000
      endloop
   endfacet
   facet normal 0.000000e+000 1.000000e+000 0.000000e+000
      outer loop
         vertex 1.399937e+000 2.260000e+002 2.071274e+000
         vertex 1.959912e+000 2.260000e+002 2.899784e+000
         vertex 1.729847e+000 2.260000e+002 1.804890e+000
      endloop
   endfacet
   facet normal 0.000000e+000 1.000000e+000 0.000000e+000
      outer loop
         vertex 1.729847e+000 2.260000e+002 1.804890e+000
         vertex 1.959912e+000 2.260000e+002 2.899784e+000
         vertex 2.421786e+000 2.260000e+002 2.526846e+000
      endloop
   endfacet
   facet normal 0.000000e+000 1.000000e+000 0.000000e+000
      outer loop
         vertex 1.729847e+000 2.260000e+002 1.804890e+000
         vertex 2.421786e+000 2.260000e+002 2.526846e+000
         vertex 2.009993e+000 2.260000e+002 1.486583e+000
      endloop
   endfacet
   facet normal 0.000000e+000 1.000000e+000 0.000000e+000
      outer loop
         vertex 2.009993e+000 2.260000e+002 1.486583e+000
         vertex 2.421786e+000 2.260000e+002 2.526846e+000
         vertex 2.813990e+000 2.260000e+002 2.081216e+000
      endloop
   endfacet
   facet normal 0.000000e+000 1.000000e+000 0.000000e+000
      outer loop
         vertex 2.009993e+000 2.260000e+002 1.486583e+000
         vertex 2.813990e+000 2.260000e+002 2.081216e+000
         vertex 2.232315e+000 2.260000e+002 1.125509e+000
      endloop
   endfacet
   facet normal 0.000000e+000 1.000000e+000 0.000000e+000
      outer loop
         vertex 2.232315e+000 2.260000e+002 1.125509e+000
         vertex 2.813990e+000 2.260000e+002 2.081216e+000
         vertex 3.125241e+000 2.260000e+002 1.575713e+000
      endloop
   endfacet
   facet normal 0.000000e+000 1.000000e+000 0.000000e+000
      outer loop
         vertex 2.232315e+000 2.260000e+002 1.125509e+000
         vertex 3.125241e+000 2.260000e+002 1.575713e+000
         vertex 2.390417e+000 2.260000e+002 7.320569e-001
      endloop
   endfacet
   facet normal 0.000000e+000 1.000000e+000 0.000000e+000
      outer loop
         vertex 2.390417e+000 2.260000e+002 7.320569e-001
         vertex 3.125241e+000 2.260000e+002 1.575713e+000
         vertex 3.346584e+000 2.260000e+002 1.024880e+000
      endloop
   endfacet
   facet normal 0.000000e+000 1.000000e+000 0.000000e+000
      outer loop
         vertex 2.390417e+000 2.260000e+002 7.320569e-001
         vertex 3.346584e+000 2.260000e+002 1.024880e+000
         vertex 2.479751e+000 2.260000e+002 3.175445e-001
      endloop
   endfacet
   facet normal 0.000000e+000 1.000000e+000 0.000000e+000
      outer loop
         vertex 2.479751e+000 2.260000e+002 3.175445e-001
         vertex 3.346584e+000 2.260000e+002 1.024880e+000
         vertex 3.471652e+000 2.260000e+002 4.445624e-001
      endloop
   endfacet
   facet normal 0.000000e+000 1.000000e+000 0.000000e+000
      outer loop
         vertex 2.479751e+000 2.260000e+002 3.175445e-001
         vertex 3.471652e+000 2.260000e+002 4.445624e-001
         vertex 2.497747e+000 2.260000e+002 -1.061030e-001
      endloop
   endfacet
   facet normal 0.000000e+000 1.000000e+000 0.000000e+000
      outer loop
         vertex 2.497747e+000 2.260000e+002 -1.061030e-001
         vertex 3.471652e+000 2.260000e+002 4.445624e-001
         vertex 3.496846e+000 2.260000e+002 -1.485442e-001
      endloop
   endfacet
   facet normal 0.000000e+000 1.000000e+000 0.000000e+000
      outer loop
         vertex 2.497747e+000 2.260000e+002 -1.061030e-001
         vertex 3.496846e+000 2.260000e+002 -1.485442e-001
         vertex 2.443888e+000 2.260000e+002 -5.266982e-001
      endloop
   endfacet
   facet normal 0.000000e+000 1.000000e+000 0.000000e+000
      outer loop
         vertex 2.443888e+000 2.260000e+002 -5.266982e-001
         vertex 3.496846e+000 2.260000e+002 -1.485442e-001
         vertex 3.421443e+000 2.260000e+002 -7.373775e-001
      endloop
   endfacet
   facet normal 0.000000e+000 1.000000e+000 0.000000e+000
      outer loop
         vertex 2.443888e+000 2.260000e+002 -5.266982e-001
         vertex 3.421443e+000 2.260000e+002 -7.373775e-001
         vertex 2.319723e+000 2.260000e+002 -9.321412e-001
      endloop
   endfacet
   facet normal 0.000000e+000 1.000000e+000 0.000000e+000
      outer loop
         vertex 2.319723e+000 2.260000e+002 -9.321412e-001
         vertex 3.421443e+000 2.260000e+002 -7.373775e-001
         vertex 3.247612e+000 2.260000e+002 -1.304998e+000
      endloop
   endfacet
   facet normal 0.000000e+000 1.000000e+000 0.000000e+000
      outer loop
         vertex 2.319723e+000 2.260000e+002 -9.321412e-001
         vertex 3.247612e+000 2.260000e+002 -1.304998e+000
         vertex 2.128823e+000 2.260000e+002 -1.310768e+000
      endloop
   endfacet
   facet normal 0.000000e+000 1.000000e+000 0.000000e+000
      outer loop
         vertex 2.128823e+000 2.260000e+002 -1.310768e+000
         vertex 3.247612e+000 2.260000e+002 -1.304998e+000
         vertex 2.980352e+000 2.260000e+002 -1.835075e+000
      endloop
   endfacet
   facet normal 0.000000e+000 1.000000e+000 0.000000e+000
      outer loop
         vertex 2.128823e+000 2.260000e+002 -1.310768e+000
         vertex 2.980352e+000 2.260000e+002 -1.835075e+000
         vertex 1.876681e+000 2.260000e+002 -1.651687e+000
      endloop
   endfacet
   facet normal 0.000000e+000 1.000000e+000 0.000000e+000
      outer loop
         vertex 1.876681e+000 2.260000e+002 -1.651687e+000
         vertex 2.980352e+000 2.260000e+002 -1.835075e+000
         vertex 2.627353e+000 2.260000e+002 -2.312361e+000
      endloop
   endfacet
   facet normal 0.000000e+000 1.000000e+000 0.000000e+000
      outer loop
         vertex 1.876681e+000 2.260000e+002 -1.651687e+000
         vertex 2.627353e+000 2.260000e+002 -2.312361e+000
         vertex 1.570550e+000 2.260000e+002 -1.945089e+000
      endloop
   endfacet
   facet normal 0.000000e+000 1.000000e+000 0.000000e+000
      outer loop
         vertex 1.570550e+000 2.260000e+002 -1.945089e+000
         vertex 2.627353e+000 2.260000e+002 -2.312361e+000
         vertex 2.198770e+000 2.260000e+002 -2.723125e+000
      endloop
   endfacet
   facet normal 0.000000e+000 1.000000e+000 0.000000e+000
      outer loop
         vertex 1.570550e+000 2.260000e+002 -1.945089e+000
         vertex 2.198770e+000 2.260000e+002 -2.723125e+000
         vertex 1.219237e+000 2.260000e+002 -2.182535e+000
      endloop
   endfacet
   facet normal 0.000000e+000 1.000000e+000 0.000000e+000
      outer loop
         vertex 1.219237e+000 2.260000e+002 -2.182535e+000
         vertex 2.198770e+000 2.260000e+002 -2.723125e+000
         vertex 1.706932e+000 2.260000e+002 -3.055549e+000
      endloop
   endfacet
   facet normal 0.000000e+000 1.000000e+000 0.000000e+000
      outer loop
         vertex 1.219237e+000 2.260000e+002 -2.182535e+000
         vertex 1.706932e+000 2.260000e+002 -3.055549e+000
         vertex 8.328495e-001 2.260000e+002 -2.357193e+000
      endloop
   endfacet
   facet normal 0.000000e+000 1.000000e+000 0.000000e+000
      outer loop
         vertex 8.328495e-001 2.260000e+002 -2.357193e+000
         vertex 1.706932e+000 2.260000e+002 -3.055549e+000
         vertex 1.165989e+000 2.260000e+002 -3.300071e+000
      endloop
   endfacet
   facet normal 0.000000e+000 1.000000e+000 0.000000e+000
      outer loop
         vertex 8.328495e-001 2.260000e+002 -2.357193e+000
         vertex 1.165989e+000 2.260000e+002 -3.300071e+000
         vertex 4.225020e-001 2.260000e+002 -2.464040e+000
      endloop
   endfacet
   facet normal 0.000000e+000 1.000000e+000 0.000000e+000
      outer loop
         vertex 4.225020e-001 2.260000e+002 -2.464040e+000
         vertex 1.165989e+000 2.260000e+002 -3.300071e+000
         vertex 5.915028e-001 2.260000e+002 -3.449656e+000
      endloop
   endfacet
   facet normal 0.000000e+000 1.000000e+000 0.000000e+000
      outer loop
         vertex 4.225020e-001 2.260000e+002 -2.464040e+000
         vertex 5.915028e-001 2.260000e+002 -3.449656e+000
         vertex 0.000000e+000 2.260000e+002 -2.500000e+000
      endloop
   endfacet
   facet normal 0.000000e+000 1.000000e+000 0.000000e+000
      outer loop
         vertex 0.000000e+000 2.260000e+002 -2.500000e+000
         vertex 5.915028e-001 2.260000e+002 -3.449656e+000
         vertex 0.000000e+000 2.260000e+002 -3.500000e+000
      endloop
   endfacet
   facet normal 0.000000e+000 1.000000e+000 0.000000e+000
      outer loop
         vertex 0.000000e+000 2.260000e+002 -2.500000e+000
         vertex 0.000000e+000 2.260000e+002 -3.500000e+000
         vertex -4.225020e-001 2.260000e+002 -2.464040e+000
      endloop
   endfacet
   facet normal 0.000000e+000 1.000000e+000 0.000000e+000
      outer loop
         vertex -4.225020e-001 2.260000e+002 -2.464040e+000
         vertex 0.000000e+000 2.260000e+002 -3.500000e+000
         vertex -5.915028e-001 2.260000e+002 -3.449656e+000
      endloop
   endfacet
   facet normal 0.000000e+000 1.000000e+000 0.000000e+000
      outer loop
         vertex -4.225020e-001 2.260000e+002 -2.464040e+000
         vertex -5.915028e-001 2.260000e+002 -3.449656e+000
         vertex -8.328495e-001 2.260000e+002 -2.357193e+000
      endloop
   endfacet
   facet normal 0.000000e+000 1.000000e+000 0.000000e+000
      outer loop
         vertex -8.328495e-001 2.260000e+002 -2.357193e+000
         vertex -5.915028e-001 2.260000e+002 -3.449656e+000
         vertex -1.165989e+000 2.260000e+002 -3.300071e+000
      endloop
   endfacet
   facet normal 0.000000e+000 1.000000e+000 0.000000e+000
      outer loop
         vertex -8.328495e-001 2.260000e+002 -2.357193e+000
         vertex -1.165989e+000 2.260000e+002 -3.300071e+000
         vertex -1.219237e+000 2.260000e+002 -2.182535e+000
      endloop
   endfacet
   facet normal 0.000000e+000 1.000000e+000 0.000000e+000
      outer loop
         vertex -1.219237e+000 2.260000e+002 -2.182535e+000
         vertex -1.165989e+000 2.260000e+002 -3.300071e+000
         vertex -1.706932e+000 2.260000e+002 -3.055549e+000
      endloop
   endfacet
   facet normal 0.000000e+000 1.000000e+000 0.000000e+000
      outer loop
         vertex -1.219237e+000 2.260000e+002 -2.182535e+000
         vertex -1.706932e+000 2.260000e+002 -3.055549e+000
         vertex -1.570550e+000 2.260000e+002 -1.945089e+000
      endloop
   endfacet
   facet normal 0.000000e+000 1.000000e+000 0.000000e+000
      outer loop
         vertex -1.570550e+000 2.260000e+002 -1.945089e+000
         vertex -1.706932e+000 2.260000e+002 -3.055549e+000
         vertex -2.198770e+000 2.260000e+002 -2.723125e+000
      endloop
   endfacet
   facet normal 0.000000e+000 1.000000e+000 0.000000e+000
      outer loop
         vertex -1.570550e+000 2.260000e+002 -1.945089e+000
         vertex -2.198770e+000 2.260000e+002 -2.723125e+000
         vertex -1.876681e+000 2.260000e+002 -1.651687e+000
      endloop
   endfacet
   facet normal 0.000000e+000 1.000000e+000 0.000000e+000
      outer loop
         vertex -1.876681e+000 2.260000e+002 -1.651687e+000
         vertex -2.198770e+000 2.260000e+002 -2.723125e+000
         vertex -2.627353e+000 2.260000e+002 -2.312361e+000
      endloop
   endfacet
   facet normal 0.000000e+000 -1.000000e+000 0.000000e+000
      outer loop
         vertex 1.219237e+000 0.000000e+000 -2.182535e+000
         vertex 1.706932e+000 0.000000e+000 -3.055549e+000
         vertex 1.570550e+000 0.000000e+000 -1.945089e+000
      endloop
   endfacet
   facet normal 0.000000e+000 -1.000000e+000 0.000000e+000
      outer loop
         vertex 1.570550e+000 0.000000e+000 -1.945089e+000
         vertex 1.706932e+000 0.000000e+000 -3.055549e+000
         vertex 2.198770e+000 0.000000e+000 -2.723125e+000
      endloop
   endfacet
   facet normal 0.000000e+000 -1.000000e+000 0.000000e+000
      outer loop
         vertex 1.570550e+000 0.000000e+000 -1.945089e+000
         vertex 2.198770e+000 0.000000e+000 -2.723125e+000
         vertex 1.876681e+000 0.000000e+000 -1.651687e+000
      endloop
   endfacet
   facet normal 0.000000e+000 -1.000000e+000 0.000000e+000
      outer loop
         vertex 1.876681e+000 0.000000e+000 -1.651687e+000
         vertex 2.198770e+000 0.000000e+000 -2.723125e+000
         vertex 2.627353e+000 0.000000e+000 -2.312361e+000
      endloop
   endfacet
   facet normal 0.000000e+000 -1.000000e+000 0.000000e+000
      outer loop
         vertex 1.876681e+000 0.000000e+000 -1.651687e+000
         vertex 2.627353e+000 0.000000e+000 -2.312361e+000
         vertex 2.128823e+000 0.000000e+000 -1.310768e+000
      endloop
   endfacet
   facet normal 0.000000e+000 -1.000000e+000 0.000000e+000
      outer loop
         vertex 2.128823e+000 0.000000e+000 -1.310768e+000
         vertex 2.627353e+000 0.000000e+000 -2.312361e+000
         vertex 2.980352e+000 0.000000e+000 -1.835075e+000
      endloop
   endfacet
   facet normal 0.000000e+000 -1.000000e+000 0.000000e+000
      outer loop
         vertex 2.128823e+000 0.000000e+000 -1.310768e+000
         vertex 2.980352e+000 0.000000e+000 -1.835075e+000
         vertex 2.319723e+000 0.000000e+000 -9.321412e-001
      endloop
   endfacet
   facet normal 0.000000e+000 -1.000000e+000 0.000000e+000
      outer loop
         vertex 2.319723e+000 0.000000e+000 -9.321412e-001
         vertex 2.980352e+000 0.000000e+000 -1.835075e+000
         vertex 3.247612e+000 0.000000e+000 -1.304998e+000
      endloop
   endfacet
   facet normal 0.000000e+000 -1.000000e+000 0.000000e+000
      outer loop
         vertex 2.319723e+000 0.000000e+000 -9.321412e-001
         vertex 3.247612e+000 0.000000e+000 -1.304998e+000
         vertex 2.443888e+000 0.000000e+000 -5.266982e-001
      endloop
   endfacet
   facet normal 0.000000e+000 -1.000000e+000 0.000000e+000
      outer loop
         vertex 2.443888e+000 0.000000e+000 -5.266982e-001
         vertex 3.247612e+000 0.000000e+000 -1.304998e+000
         vertex 3.421443e+000 0.000000e+000 -7.373775e-001
      endloop
   endfacet
   facet normal 0.000000e+000 -1.000000e+000 0.000000e+000
      outer loop
         vertex 2.443888e+000 0.000000e+000 -5.266982e-001
         vertex 3.421443e+000 0.000000e+000 -7.373775e-001
         vertex 2.497747e+000 0.000000e+000 -1.061030e-001
      endloop
   endfacet
   facet normal 0.000000e+000 -1.000000e+000 0.000000e+000
      outer loop
         vertex 2.497747e+000 0.000000e+000 -1.061030e-001
         vertex 3.421443e+000 0.000000e+000 -7.373775e-001
         vertex 3.496846e+000 0.000000e+000 -1.485442e-001
      endloop
   endfacet
   facet normal 0.000000e+000 -1.000000e+000 0.000000e+000
      outer loop
         vertex 2.497747e+000 0.000000e+000 -1.061030e-001
         vertex 3.496846e+000 0.000000e+000 -1.485442e-001
         vertex 2.479751e+000 0.000000e+000 3.175445e-001
      endloop
   endfacet
   facet normal 0.000000e+000 -1.000000e+000 0.000000e+000
      outer loop
         vertex 2.479751e+000 0.000000e+000 3.175445e-001
         vertex 3.496846e+000 0.000000e+000 -1.485442e-001
         vertex 3.471652e+000 0.000000e+000 4.445624e-001
      endloop
   endfacet
   facet normal 0.000000e+000 -1.000000e+000 0.000000e+000
      outer loop
         vertex 2.479751e+000 0.000000e+000 3.175445e-001
         vertex 3.471652e+000 0.000000e+000 4.445624e-001
         vertex 2.390417e+000 0.000000e+000 7.320569e-001
      endloop
   endfacet
   facet normal 0.000000e+000 -1.000000e+000 0.000000e+000
      outer loop
         vertex 2.390417e+000 0.000000e+000 7.320569e-001
         vertex 3.471652e+000 0.000000e+000 4.445624e-001
         vertex 3.346584e+000 0.000000e+000 1.024880e+000
      endloop
   endfacet
   facet normal 0.000000e+000 -1.000000e+000 0.000000e+000
      outer loop
         vertex 2.390417e+000 0.000000e+000 7.320569e-001
         vertex 3.346584e+000 0.000000e+000 1.024880e+000
         vertex 2.232315e+000 0.000000e+000 1.125509e+000
      endloop
   endfacet
   facet normal 0.000000e+000 -1.000000e+000 0.000000e+000
      outer loop
         vertex 2.232315e+000 0.000000e+000 1.125509e+000
         vertex 3.346584e+000 0.000000e+000 1.024880e+000
         vertex 3.125241e+000 0.000000e+000 1.575713e+000
      endloop
   endfacet
   facet normal 0.000000e+000 -1.000000e+000 0.000000e+000
      outer loop
         vertex 2.232315e+000 0.000000e+000 1.125509e+000
         vertex 3.125241e+000 0.000000e+000 1.575713e+000
         vertex 2.009993e+000 0.000000e+000 1.486583e+000
      endloop
   endfacet
   facet normal 0.000000e+000 -1.000000e+000 0.000000e+000
      outer loop
         vertex 2.009993e+000 0.000000e+000 1.486583e+000
         vertex 3.125241e+000 0.000000e+000 1.575713e+000
         vertex 2.813990e+000 0.000000e+000 2.081216e+000
      endloop
   endfacet
   facet normal 0.000000e+000 -1.000000e+000 0.000000e+000
      outer loop
         vertex 2.009993e+000 0.000000e+000 1.486583e+000
         vertex 2.813990e+000 0.000000e+000 2.081216e+000
         vertex 1.729847e+000 0.000000e+000 1.804890e+000
      endloop
   endfacet
   facet normal 0.000000e+000 -1.000000e+000 0.000000e+000
      outer loop
         vertex 1.729847e+000 0.000000e+000 1.804890e+000
         vertex 2.813990e+000 0.000000e+000 2.081216e+000
         vertex 2.421786e+000 0.000000e+000 2.526846e+000
      endloop
   endfacet
   facet normal 0.000000e+000 -1.000000e+000 0.000000e+000
      outer loop
         vertex 1.729847e+000 0.000000e+000 1.804890e+000
         vertex 2.421786e+000 0.000000e+000 2.526846e+000
         vertex 1.399937e+000 0.000000e+000 2.071274e+000
      endloop
   endfacet
   facet normal 0.000000e+000 -1.000000e+000 0.000000e+000
      outer loop
         vertex 1.399937e+000 0.000000e+000 2.071274e+000
         vertex 2.421786e+000 0.000000e+000 2.526846e+000
         vertex 1.959912e+000 0.000000e+000 2.899784e+000
      endloop
   endfacet
   facet normal 0.000000e+000 -1.000000e+000 0.000000e+000
      outer loop
         vertex 1.399937e+000 0.000000e+000 2.071274e+000
         vertex 1.959912e+000 0.000000e+000 2.899784e+000
         vertex 1.029753e+000 0.000000e+000 2.278071e+000
      endloop
   endfacet
   facet normal 0.000000e+000 -1.000000e+000 0.000000e+000
      outer loop
         vertex 1.029753e+000 0.000000e+000 2.278071e+000
         vertex 1.959912e+000 0.000000e+000 2.899784e+000
         vertex 1.441654e+000 0.000000e+000 3.189300e+000
      endloop
   endfacet
   facet normal 0.000000e+000 -1.000000e+000 0.000000e+000
      outer loop
         vertex 1.029753e+000 0.000000e+000 2.278071e+000
         vertex 1.441654e+000 0.000000e+000 3.189300e+000
         vertex 6.299452e-001 0.000000e+000 2.419332e+000
      endloop
   endfacet
   facet normal 0.000000e+000 -1.000000e+000 0.000000e+000
      outer loop
         vertex 6.299452e-001 0.000000e+000 2.419332e+000
         vertex 1.441654e+000 0.000000e+000 3.189300e+000
         vertex 8.819232e-001 0.000000e+000 3.387065e+000
      endloop
   endfacet
   facet normal 0.000000e+000 -1.000000e+000 0.000000e+000
      outer loop
         vertex 6.299452e-001 0.000000e+000 2.419332e+000
         vertex 8.819232e-001 0.000000e+000 3.387065e+000
         vertex 2.120148e-001 0.000000e+000 2.490994e+000
      endloop
   endfacet
   facet normal 0.000000e+000 -1.000000e+000 0.000000e+000
      outer loop
         vertex 2.120148e-001 0.000000e+000 2.490994e+000
         vertex 8.819232e-001 0.000000e+000 3.387065e+000
         vertex 2.968207e-001 0.000000e+000 3.487391e+000
      endloop
   endfacet
   facet normal 0.000000e+000 -1.000000e+000 0.000000e+000
      outer loop
         vertex 2.120148e-001 0.000000e+000 2.490994e+000
         vertex 2.968207e-001 0.000000e+000 3.487391e+000
         vertex 3.061617e-016 0.000000e+000 2.500000e+000
      endloop
   endfacet
   facet normal 0.000000e+000 -1.000000e+000 0.000000e+000
      outer loop
         vertex 3.061617e-016 0.000000e+000 2.500000e+000
         vertex 2.968207e-001 0.000000e+000 3.487391e+000
         vertex 1.285879e-015 0.000000e+000 3.500000e+000
      endloop
   endfacet
   facet normal 0.000000e+000 -1.000000e+000 0.000000e+000
      outer loop
         vertex 3.061617e-016 0.000000e+000 2.500000e+000
         vertex 1.285879e-015 0.000000e+000 3.500000e+000
         vertex -2.120148e-001 0.000000e+000 2.490994e+000
      endloop
   endfacet
   facet normal 0.000000e+000 -1.000000e+000 0.000000e+000
      outer loop
         vertex -2.120148e-001 0.000000e+000 2.490994e+000
         vertex 1.285879e-015 0.000000e+000 3.500000e+000
         vertex -2.968207e-001 0.000000e+000 3.487391e+000
      endloop
   endfacet
   facet normal 0.000000e+000 -1.000000e+000 0.000000e+000
      outer loop
         vertex -2.120148e-001 0.000000e+000 2.490994e+000
         vertex -2.968207e-001 0.000000e+000 3.487391e+000
         vertex -6.299452e-001 0.000000e+000 2.419332e+000
      endloop
   endfacet
   facet normal 0.000000e+000 -1.000000e+000 0.000000e+000
      outer loop
         vertex -6.299452e-001 0.000000e+000 2.419332e+000
         vertex -2.968207e-001 0.000000e+000 3.487391e+000
         vertex -8.819232e-001 0.000000e+000 3.387065e+000
      endloop
   endfacet
   facet normal 0.000000e+000 -1.000000e+000 0.000000e+000
      outer loop
         vertex -6.299452e-001 0.000000e+000 2.419332e+000
         vertex -8.819232e-001 0.000000e+000 3.387065e+000
         vertex -1.029753e+000 0.000000e+000 2.278071e+000
      endloop
   endfacet
   facet normal 0.000000e+000 -1.000000e+000 0.000000e+000
      outer loop
         vertex -1.029753e+000 0.000000e+000 2.278071e+000
         vertex -8.819232e-001 0.000000e+000 3.387065e+000
         vertex -1.441654e+000 0.000000e+000 3.189300e+000
      endloop
   endfacet
   facet normal 0.000000e+000 -1.000000e+000 0.000000e+000
      outer loop
         vertex -1.029753e+000 0.000000e+000 2.278071e+000
         vertex -1.441654e+000 0.000000e+000 3.189300e+000
         vertex -1.399937e+000 0.000000e+000 2.071274e+000
      endloop
   endfacet
   facet normal 0.000000e+000 -1.000000e+000 0.000000e+000
      outer loop
         vertex -1.399937e+000 0.000000e+000 2.071274e+000
         vertex -1.441654e+000 0.000000e+000 3.189300e+000
         vertex -1.959912e+000 0.000000e+000 2.899784e+000
      endloop
   endfacet
   facet normal 0.000000e+000 -1.000000e+000 0.000000e+000
      outer loop
         vertex -1.399937e+000 0.000000e+000 2.071274e+000
         vertex -1.959912e+000 0.000000e+000 2.899784e+000
         vertex -1.729847e+000 0.000000e+000 1.804890e+000
      endloop
   endfacet
   facet normal 0.000000e+000 -1.000000e+000 0.000000e+000
      outer loop
         vertex -1.729847e+000 0.000000e+000 1.804890e+000
         vertex -1.959912e+000 0.000000e+000 2.899784e+000
         vertex -2.421786e+000 0.000000e+000 2.526846e+000
      endloop
   endfacet
   facet normal 0.000000e+000 -1.000000e+000 0.000000e+000
      outer loop
         vertex -1.729847e+000 0.000000e+000 1.804890e+000
         vertex -2.421786e+000 0.000000e+000 2.526846e+000
         vertex -2.009993e+000 0.000000e+000 1.486583e+000
      endloop
   endfacet
   facet normal 0.000000e+000 -1.000000e+000 0.000000e+000
      outer loop
         vertex -2.009993e+000 0.000000e+000 1.486583e+000
         vertex -2.421786e+000 0.000000e+000 2.526846e+000
         vertex -2.813990e+000 0.000000e+000 2.081216e+000
      endloop
   endfacet
   facet normal 0.000000e+000 -1.000000e+000 0.000000e+000
      outer loop
         vertex -2.009993e+000 0.000000e+000 1.486583e+000
         vertex -2.813990e+000 0.000000e+000 2.081216e+000
         vertex -2.232315e+000 0.000000e+000 1.125509e+000
      endloop
   endfacet
   facet normal 0.000000e+000 -1.000000e+000 0.000000e+000
      outer loop
         vertex -2.232315e+000 0.000000e+000 1.125509e+000
         vertex -2.813990e+000 0.000000e+000 2.081216e+000
         vertex -3.125241e+000 0.000000e+000 1.575713e+000
      endloop
   endfacet
   facet normal 0.000000e+000 -1.000000e+000 0.000000e+000
      outer loop
         vertex -2.232315e+000 0.000000e+000 1.125509e+000
         vertex -3.125241e+000 0.000000e+000 1.575713e+000
         vertex -2.390417e+000 0.000000e+000 7.320569e-001
      endloop
   endfacet
   facet normal 0.000000e+000 -1.000000e+000 0.000000e+000
      outer loop
         vertex -2.390417e+000 0.000000e+000 7.320569e-001
         vertex -3.125241e+000 0.000000e+000 1.575713e+000
         vertex -3.346584e+000 0.000000e+000 1.024880e+000
      endloop
   endfacet
   facet normal 0.000000e+000 -1.000000e+000 0.000000e+000
      outer loop
         vertex -2.390417e+000 0.000000e+000 7.320569e-001
         vertex -3.346584e+000 0.000000e+000 1.024880e+000
         vertex -2.479751e+000 0.000000e+000 3.175445e-001
      endloop
   endfacet
   facet normal 0.000000e+000 -1.000000e+000 0.000000e+000
      outer loop
         vertex -2.479751e+000 0.000000e+000 3.175445e-001
         vertex -3.346584e+000 0.000000e+000 1.024880e+000
         vertex -3.471652e+000 0.000000e+000 4.445624e-001
      endloop
   endfacet
   facet normal 0.000000e+000 -1.000000e+000 0.000000e+000
      outer loop
         vertex -2.479751e+000 0.000000e+000 3.175445e-001
         vertex -3.471652e+000 0.000000e+000 4.445624e-001
         vertex -2.497747e+000 0.000000e+000 -1.061030e-001
      endloop
   endfacet
   facet normal 0.000000e+000 -1.000000e+000 0.000000e+000
      outer loop
         vertex -2.497747e+000 0.000000e+000 -1.061030e-001
         vertex -3.471652e+000 0.000000e+000 4.445624e-001
         vertex -3.496846e+000 0.000000e+000 -1.485442e-001
      endloop
   endfacet
   facet normal 0.000000e+000 -1.000000e+000 0.000000e+000
      outer loop
         vertex -2.497747e+000 0.000000e+000 -1.061030e-001
         vertex -3.496846e+000 0.000000e+000 -1.485442e-001
         vertex -2.443888e+000 0.000000e+000 -5.266982e-001
      endloop
   endfacet
   facet normal 0.000000e+000 -1.000000e+000 0.000000e+000
      outer loop
         vertex -2.443888e+000 0.000000e+000 -5.266982e-001
         vertex -3.496846e+000 0.000000e+000 -1.485442e-001
         vertex -3.421443e+000 0.000000e+000 -7.373775e-001
      endloop
   endfacet
   facet normal 0.000000e+000 -1.000000e+000 0.000000e+000
      outer loop
         vertex -2.443888e+000 0.000000e+000 -5.266982e-001
         vertex -3.421443e+000 0.000000e+000 -7.373775e-001
         vertex -2.319723e+000 0.000000e+000 -9.321412e-001
      endloop
   endfacet
   facet normal 0.000000e+000 -1.000000e+000 0.000000e+000
      outer loop
         vertex -2.319723e+000 0.000000e+000 -9.321412e-001
         vertex -3.421443e+000 0.000000e+000 -7.373775e-001
         vertex -3.247612e+000 0.000000e+000 -1.304998e+000
      endloop
   endfacet
   facet normal 0.000000e+000 -1.000000e+000 0.000000e+000
      outer loop
         vertex -2.319723e+000 0.000000e+000 -9.321412e-001
         vertex -3.247612e+000 0.000000e+000 -1.304998e+000
         vertex -2.128823e+000 0.000000e+000 -1.310768e+000
      endloop
   endfacet
   facet normal 0.000000e+000 -1.000000e+000 0.000000e+000
      outer loop
         vertex -2.128823e+000 0.000000e+000 -1.310768e+000
         vertex -3.247612e+000 0.000000e+000 -1.304998e+000
         vertex -2.980352e+000 0.000000e+000 -1.835075e+000
      endloop
   endfacet
   facet normal 0.000000e+000 -1.000000e+000 0.000000e+000
      outer loop
         vertex -2.128823e+000 0.000000e+000 -1.310768e+000
         vertex -2.980352e+000 0.000000e+000 -1.835075e+000
         vertex -1.876681e+000 0.000000e+000 -1.651687e+000
      endloop
   endfacet
   facet normal 0.000000e+000 -1.000000e+000 0.000000e+000
      outer loop
         vertex -1.876681e+000 0.000000e+000 -1.651687e+000
         vertex -2.980352e+000 0.000000e+000 -1.835075e+000
         vertex -2.627353e+000 0.000000e+000 -2.312361e+000
      endloop
   endfacet
   facet normal 0.000000e+000 -1.000000e+000 0.000000e+000
      outer loop
         vertex -1.876681e+000 0.000000e+000 -1.651687e+000
         vertex -2.627353e+000 0.000000e+000 -2.312361e+000
         vertex -1.570550e+000 0.000000e+000 -1.945089e+000
      endloop
   endfacet
   facet normal 0.000000e+000 -1.000000e+000 0.000000e+000
      outer loop
         vertex -1.570550e+000 0.000000e+000 -1.945089e+000
         vertex -2.627353e+000 0.000000e+000 -2.312361e+000
         vertex -2.198770e+000 0.000000e+000 -2.723125e+000
      endloop
   endfacet
   facet normal 0.000000e+000 -1.000000e+000 0.000000e+000
      outer loop
         vertex -1.570550e+000 0.000000e+000 -1.945089e+000
         vertex -2.198770e+000 0.000000e+000 -2.723125e+000
         vertex -1.219237e+000 0.000000e+000 -2.182535e+000
      endloop
   endfacet
   facet normal 0.000000e+000 -1.000000e+000 0.000000e+000
      outer loop
         vertex -1.219237e+000 0.000000e+000 -2.182535e+000
         vertex -2.198770e+000 0.000000e+000 -2.723125e+000
         vertex -1.706932e+000 0.000000e+000 -3.055549e+000
      endloop
   endfacet
   facet normal 0.000000e+000 -1.000000e+000 0.000000e+000
      outer loop
         vertex -1.219237e+000 0.000000e+000 -2.182535e+000
         vertex -1.706932e+000 0.000000e+000 -3.055549e+000
         vertex -8.328495e-001 0.000000e+000 -2.357193e+000
      endloop
   endfacet
   facet normal 0.000000e+000 -1.000000e+000 0.000000e+000
      outer loop
         vertex -8.328495e-001 0.000000e+000 -2.357193e+000
         vertex -1.706932e+000 0.000000e+000 -3.055549e+000
         vertex -1.165989e+000 0.000000e+000 -3.300071e+000
      endloop
   endfacet
   facet normal 0.000000e+000 -1.000000e+000 0.000000e+000
      outer loop
         vertex -8.328495e-001 0.000000e+000 -2.357193e+000
         vertex -1.165989e+000 0.000000e+000 -3.300071e+000
         vertex -4.225020e-001 0.000000e+000 -2.464040e+000
      endloop
   endfacet
   facet normal 0.000000e+000 -1.000000e+000 0.000000e+000
      outer loop
         vertex -4.225020e-001 0.000000e+000 -2.464040e+000
         vertex -1.165989e+000 0.000000e+000 -3.300071e+000
         vertex -5.915028e-001 0.000000e+000 -3.449656e+000
      endloop
   endfacet
   facet normal 0.000000e+000 -1.000000e+000 0.000000e+000
      outer loop
         vertex -4.225020e-001 0.000000e+000 -2.464040e+000
         vertex -5.915028e-001 0.000000e+000 -3.449656e+000
         vertex 0.000000e+000 0.000000e+000 -2.500000e+000
      endloop
   endfacet
   facet normal 0.000000e+000 -1.000000e+000 0.000000e+000
      outer loop
         vertex 0.000000e+000 0.000000e+000 -2.500000e+000
         vertex -5.915028e-001 0.000000e+000 -3.449656e+000
         vertex 0.000000e+000 0.000000e+000 -3.500000e+000
      endloop
   endfacet
   facet normal 0.000000e+000 -1.000000e+000 0.000000e+000
      outer loop
         vertex 0.000000e+000 0.000000e+000 -2.500000e+000
         vertex 0.000000e+000 0.000000e+000 -3.500000e+000
         vertex 4.225020e-001 0.000000e+000 -2.464040e+000
      endloop
   endfacet
   facet normal 0.000000e+000 -1.000000e+000 0.000000e+000
      outer loop
         vertex 4.225020e-001 0.000000e+000 -2.464040e+000
         vertex 0.000000e+000 0.000000e+000 -3.500000e+000
         vertex 5.915028e-001 0.000000e+000 -3.449656e+000
      endloop
   endfacet
   facet normal 0.000000e+000 -1.000000e+000 0.000000e+000
      outer loop
         vertex 4.225020e-001 0.000000e+000 -2.464040e+000
         vertex 5.915028e-001 0.000000e+000 -3.449656e+000
         vertex 8.328495e-001 0.000000e+000 -2.357193e+000
      endloop
   endfacet
   facet normal 0.000000e+000 -1.000000e+000 0.000000e+000
      outer loop
         vertex 8.328495e-001 0.000000e+000 -2.357193e+000
         vertex 5.915028e-001 0.000000e+000 -3.449656e+000
         vertex 1.165989e+000 0.000000e+000 -3.300071e+000
      endloop
   endfacet
   facet normal 0.000000e+000 -1.000000e+000 0.000000e+000
      outer loop
         vertex 8.328495e-001 0.000000e+000 -2.357193e+000
         vertex 1.165989e+000 0.000000e+000 -3.300071e+000
         vertex 1.219237e+000 0.000000e+000 -2.182535e+000
      endloop
   endfacet
   facet normal 0.000000e+000 -1.000000e+000 0.000000e+000
      outer loop
         vertex 1.219237e+000 0.000000e+000 -2.182535e+000
         vertex 1.165989e+000 0.000000e+000 -3.300071e+000
         vertex 1.706932e+000 0.000000e+000 -3.055549e+000
      endloop
   endfacet
endsolid