solid Tubo_Predeterminado_sldprt
   facet normal -5.651454e-002 0.000000e+000 9.984018e-001
      outer loop
         vertex -1.469576e-015 1.300000e+002 -6.000000e+000
         vertex -1.469576e-015 0.000000e+000 -6.000000e+000
         vertex 1.014005e+000 1.300000e+002 -5.913695e+000
      endloop
   endfacet
   facet normal -1.130291e-001 0.000000e+000 9.935917e-001
      outer loop
         vertex 1.014005e+000 1.300000e+002 -5.913695e+000
         vertex -1.469576e-015 0.000000e+000 -6.000000e+000
         vertex 1.014005e+000 0.000000e+000 -5.913695e+000
      endloop
   endfacet
   facet normal -2.244324e-001 0.000000e+000 9.744897e-001
      outer loop
         vertex 1.014005e+000 1.300000e+002 -5.913695e+000
         vertex 1.014005e+000 0.000000e+000 -5.913695e+000
         vertex 1.998839e+000 1.300000e+002 -5.657265e+000
      endloop
   endfacet
   facet normal -2.793211e-001 0.000000e+000 9.601977e-001
      outer loop
         vertex 1.998839e+000 1.300000e+002 -5.657265e+000
         vertex 1.014005e+000 0.000000e+000 -5.913695e+000
         vertex 1.998839e+000 0.000000e+000 -5.657265e+000
      endloop
   endfacet
   facet normal -3.858936e-001 0.000000e+000 9.225433e-001
      outer loop
         vertex 1.998839e+000 1.300000e+002 -5.657265e+000
         vertex 1.998839e+000 0.000000e+000 -5.657265e+000
         vertex 2.926170e+000 1.300000e+002 -5.238085e+000
      endloop
   endfacet
   facet normal -4.375775e-001 0.000000e+000 8.991807e-001
      outer loop
         vertex 2.926170e+000 1.300000e+002 -5.238085e+000
         vertex 1.998839e+000 0.000000e+000 -5.657265e+000
         vertex 2.926170e+000 0.000000e+000 -5.238085e+000
      endloop
   endfacet
   facet normal -5.362535e-001 0.000000e+000 8.440570e-001
      outer loop
         vertex 2.926170e+000 1.300000e+002 -5.238085e+000
         vertex 2.926170e+000 0.000000e+000 -5.238085e+000
         vertex 3.769320e+000 1.300000e+002 -4.668214e+000
      endloop
   endfacet
   facet normal -5.832456e-001 0.000000e+000 8.122959e-001
      outer loop
         vertex 3.769320e+000 1.300000e+002 -4.668214e+000
         vertex 2.926170e+000 0.000000e+000 -5.238085e+000
         vertex 3.769320e+000 0.000000e+000 -4.668214e+000
      endloop
   endfacet
   facet normal -6.711863e-001 0.000000e+000 7.412888e-001
      outer loop
         vertex 3.769320e+000 1.300000e+002 -4.668214e+000
         vertex 3.769320e+000 0.000000e+000 -4.668214e+000
         vertex 4.504034e+000 1.300000e+002 -3.964048e+000
      endloop
   endfacet
   facet normal -7.121348e-001 0.000000e+000 7.020428e-001
      outer loop
         vertex 4.504034e+000 1.300000e+002 -3.964048e+000
         vertex 3.769320e+000 0.000000e+000 -4.668214e+000
         vertex 4.504034e+000 0.000000e+000 -3.964048e+000
      endloop
   endfacet
   facet normal -7.868103e-001 0.000000e+000 6.171949e-001
      outer loop
         vertex 4.504034e+000 1.300000e+002 -3.964048e+000
         vertex 4.504034e+000 0.000000e+000 -3.964048e+000
         vertex 5.109175e+000 1.300000e+002 -3.145844e+000
      endloop
   endfacet
   facet normal -8.205372e-001 0.000000e+000 5.715931e-001
      outer loop
         vertex 5.109175e+000 1.300000e+002 -3.145844e+000
         vertex 4.504034e+000 0.000000e+000 -3.964048e+000
         vertex 5.109175e+000 0.000000e+000 -3.145844e+000
      endloop
   endfacet
   facet normal -8.797992e-001 0.000000e+000 4.753455e-001
      outer loop
         vertex 5.109175e+000 1.300000e+002 -3.145844e+000
         vertex 5.109175e+000 0.000000e+000 -3.145844e+000
         vertex 5.567334e+000 1.300000e+002 -2.237139e+000
      endloop
   endfacet
   facet normal -9.053342e-001 0.000000e+000 4.246998e-001
      outer loop
         vertex 5.567334e+000 1.300000e+002 -2.237139e+000
         vertex 5.109175e+000 0.000000e+000 -3.145844e+000
         vertex 5.567334e+000 0.000000e+000 -2.237139e+000
      endloop
   endfacet
   facet normal -9.474779e-001 0.000000e+000 3.198213e-001
      outer loop
         vertex 5.567334e+000 1.300000e+002 -2.237139e+000
         vertex 5.567334e+000 0.000000e+000 -2.237139e+000
         vertex 5.865331e+000 1.300000e+002 -1.264076e+000
      endloop
   endfacet
   facet normal -9.640865e-001 0.000000e+000 2.655886e-001
      outer loop
         vertex 5.865331e+000 1.300000e+002 -1.264076e+000
         vertex 5.567334e+000 0.000000e+000 -2.237139e+000
         vertex 5.865331e+000 0.000000e+000 -1.264076e+000
      endloop
   endfacet
   facet normal -9.878993e-001 0.000000e+000 1.550965e-001
      outer loop
         vertex 5.865331e+000 1.300000e+002 -1.264076e+000
         vertex 5.865331e+000 0.000000e+000 -1.264076e+000
         vertex 5.994594e+000 1.300000e+002 -2.546472e-001
      endloop
   endfacet
   facet normal -9.951036e-001 0.000000e+000 9.883699e-002
      outer loop
         vertex 5.994594e+000 1.300000e+002 -2.546472e-001
         vertex 5.865331e+000 0.000000e+000 -1.264076e+000
         vertex 5.994594e+000 0.000000e+000 -2.546472e-001
      endloop
   endfacet
   facet normal -9.999007e-001 0.000000e+000 -1.409025e-002
      outer loop
         vertex 5.994594e+000 1.300000e+002 -2.546472e-001
         vertex 5.994594e+000 0.000000e+000 -2.546472e-001
         vertex 5.951403e+000 1.300000e+002 7.621069e-001
      endloop
   endfacet
   facet normal -9.974935e-001 0.000000e+000 -7.075802e-002
      outer loop
         vertex 5.951403e+000 1.300000e+002 7.621069e-001
         vertex 5.994594e+000 0.000000e+000 -2.546472e-001
         vertex 5.951403e+000 0.000000e+000 7.621069e-001
      endloop
   endfacet
   facet normal -9.831368e-001 0.000000e+000 -1.828716e-001
      outer loop
         vertex 5.951403e+000 1.300000e+002 7.621069e-001
         vertex 5.951403e+000 0.000000e+000 7.621069e-001
         vertex 5.737000e+000 1.300000e+002 1.756937e+000
      endloop
   endfacet
   facet normal -9.711873e-001 0.000000e+000 -2.383175e-001
      outer loop
         vertex 5.737000e+000 1.300000e+002 1.756937e+000
         vertex 5.951403e+000 0.000000e+000 7.621069e-001
         vertex 5.737000e+000 0.000000e+000 1.756937e+000
      endloop
   endfacet
   facet normal -9.380898e-001 0.000000e+000 -3.463921e-001
      outer loop
         vertex 5.737000e+000 1.300000e+002 1.756937e+000
         vertex 5.737000e+000 0.000000e+000 1.756937e+000
         vertex 5.357555e+000 1.300000e+002 2.701222e+000
      endloop
   endfacet
   facet normal -9.169418e-001 0.000000e+000 -3.990209e-001
      outer loop
         vertex 5.357555e+000 1.300000e+002 2.701222e+000
         vertex 5.737000e+000 0.000000e+000 1.756937e+000
         vertex 5.357555e+000 0.000000e+000 2.701222e+000
      endloop
   endfacet
   facet normal -8.660557e-001 0.000000e+000 -4.999475e-001
      outer loop
         vertex 5.357555e+000 1.300000e+002 2.701222e+000
         vertex 5.357555e+000 0.000000e+000 2.701222e+000
         vertex 4.823983e+000 1.300000e+002 3.567799e+000
      endloop
   endfacet
   facet normal -8.363176e-001 0.000000e+000 -5.482453e-001
      outer loop
         vertex 4.823983e+000 1.300000e+002 3.567799e+000
         vertex 5.357555e+000 0.000000e+000 2.701222e+000
         vertex 4.823983e+000 0.000000e+000 3.567799e+000
      endloop
   endfacet
   facet normal -7.691067e-001 0.000000e+000 -6.391203e-001
      outer loop
         vertex 4.823983e+000 1.300000e+002 3.567799e+000
         vertex 4.823983e+000 0.000000e+000 3.567799e+000
         vertex 4.151633e+000 1.300000e+002 4.331737e+000
      endloop
   endfacet
   facet normal -7.316340e-001 0.000000e+000 -6.816977e-001
      outer loop
         vertex 4.151633e+000 1.300000e+002 4.331737e+000
         vertex 4.823983e+000 0.000000e+000 3.567799e+000
         vertex 4.151633e+000 0.000000e+000 4.331737e+000
      endloop
   endfacet
   facet normal -6.500320e-001 0.000000e+000 -7.599069e-001
      outer loop
         vertex 4.151633e+000 1.300000e+002 4.331737e+000
         vertex 4.151633e+000 0.000000e+000 4.331737e+000
         vertex 3.359849e+000 1.300000e+002 4.971058e+000
      endloop
   endfacet
   facet normal -6.059027e-001 0.000000e+000 -7.955388e-001
      outer loop
         vertex 3.359849e+000 1.300000e+002 4.971058e+000
         vertex 4.151633e+000 0.000000e+000 4.331737e+000
         vertex 3.359849e+000 0.000000e+000 4.971058e+000
      endloop
   endfacet
   facet normal -5.122570e-001 0.000000e+000 -8.588322e-001
      outer loop
         vertex 3.359849e+000 1.300000e+002 4.971058e+000
         vertex 3.359849e+000 0.000000e+000 4.971058e+000
         vertex 2.471407e+000 1.300000e+002 5.467371e+000
      endloop
   endfacet
   facet normal -4.627406e-001 0.000000e+000 -8.864937e-001
      outer loop
         vertex 2.471407e+000 1.300000e+002 5.467371e+000
         vertex 3.359849e+000 0.000000e+000 4.971058e+000
         vertex 2.471407e+000 0.000000e+000 5.467371e+000
      endloop
   endfacet
   facet normal -3.597453e-001 0.000000e+000 -9.330506e-001
      outer loop
         vertex 2.471407e+000 1.300000e+002 5.467371e+000
         vertex 2.471407e+000 0.000000e+000 5.467371e+000
         vertex 1.511868e+000 1.300000e+002 5.806397e+000
      endloop
   endfacet
   facet normal -3.062663e-001 0.000000e+000 -9.519458e-001
      outer loop
         vertex 1.511868e+000 1.300000e+002 5.806397e+000
         vertex 2.471407e+000 0.000000e+000 5.467371e+000
         vertex 1.511868e+000 0.000000e+000 5.806397e+000
      endloop
   endfacet
   facet normal -1.968844e-001 0.000000e+000 -9.804267e-001
      outer loop
         vertex 1.511868e+000 1.300000e+002 5.806397e+000
         vertex 1.511868e+000 0.000000e+000 5.806397e+000
         vertex 5.088356e-001 1.300000e+002 5.978385e+000
      endloop
   endfacet
   facet normal -1.409813e-001 0.000000e+000 -9.900123e-001
      outer loop
         vertex 5.088356e-001 1.300000e+002 5.978385e+000
         vertex 1.511868e+000 0.000000e+000 5.806397e+000
         vertex 5.088356e-001 0.000000e+000 5.978385e+000
      endloop
   endfacet
   facet normal -5.658260e-002 0.000000e+000 -9.983979e-001
      outer loop
         vertex 5.088356e-001 1.300000e+002 5.978385e+000
         vertex 5.088356e-001 0.000000e+000 5.978385e+000
         vertex 7.347881e-016 1.300000e+002 6.000000e+000
      endloop
   endfacet
   facet normal -2.829130e-002 0.000000e+000 -9.995998e-001
      outer loop
         vertex 7.347881e-016 1.300000e+002 6.000000e+000
         vertex 5.088356e-001 0.000000e+000 5.978385e+000
         vertex 2.204364e-015 0.000000e+000 6.000000e+000
      endloop
   endfacet
   facet normal 2.829130e-002 0.000000e+000 -9.995998e-001
      outer loop
         vertex 7.347881e-016 1.300000e+002 6.000000e+000
         vertex 2.204364e-015 0.000000e+000 6.000000e+000
         vertex -5.088356e-001 1.300000e+002 5.978385e+000
      endloop
   endfacet
   facet normal 5.658260e-002 0.000000e+000 -9.983979e-001
      outer loop
         vertex -5.088356e-001 1.300000e+002 5.978385e+000
         vertex 2.204364e-015 0.000000e+000 6.000000e+000
         vertex -5.088356e-001 0.000000e+000 5.978385e+000
      endloop
   endfacet
   facet normal 1.409813e-001 0.000000e+000 -9.900123e-001
      outer loop
         vertex -5.088356e-001 1.300000e+002 5.978385e+000
         vertex -5.088356e-001 0.000000e+000 5.978385e+000
         vertex -1.511868e+000 1.300000e+002 5.806397e+000
      endloop
   endfacet
   facet normal 1.968844e-001 0.000000e+000 -9.804267e-001
      outer loop
         vertex -1.511868e+000 1.300000e+002 5.806397e+000
         vertex -5.088356e-001 0.000000e+000 5.978385e+000
         vertex -1.511868e+000 0.000000e+000 5.806397e+000
      endloop
   endfacet
   facet normal 3.062663e-001 0.000000e+000 -9.519458e-001
      outer loop
         vertex -1.511868e+000 1.300000e+002 5.806397e+000
         vertex -1.511868e+000 0.000000e+000 5.806397e+000
         vertex -2.471407e+000 1.300000e+002 5.467371e+000
      endloop
   endfacet
   facet normal 3.597453e-001 0.000000e+000 -9.330506e-001
      outer loop
         vertex -2.471407e+000 1.300000e+002 5.467371e+000
         vertex -1.511868e+000 0.000000e+000 5.806397e+000
         vertex -2.471407e+000 0.000000e+000 5.467371e+000
      endloop
   endfacet
   facet normal 4.627406e-001 0.000000e+000 -8.864937e-001
      outer loop
         vertex -2.471407e+000 1.300000e+002 5.467371e+000
         vertex -2.471407e+000 0.000000e+000 5.467371e+000
         vertex -3.359849e+000 1.300000e+002 4.971058e+000
      endloop
   endfacet
   facet normal 5.122570e-001 0.000000e+000 -8.588322e-001
      outer loop
         vertex -3.359849e+000 1.300000e+002 4.971058e+000
         vertex -2.471407e+000 0.000000e+000 5.467371e+000
         vertex -3.359849e+000 0.000000e+000 4.971058e+000
      endloop
   endfacet
   facet normal 6.059027e-001 0.000000e+000 -7.955388e-001
      outer loop
         vertex -3.359849e+000 1.300000e+002 4.971058e+000
         vertex -3.359849e+000 0.000000e+000 4.971058e+000
         vertex -4.151633e+000 1.300000e+002 4.331737e+000
      endloop
   endfacet
   facet normal 6.500320e-001 0.000000e+000 -7.599069e-001
      outer loop
         vertex -4.151633e+000 1.300000e+002 4.331737e+000
         vertex -3.359849e+000 0.000000e+000 4.971058e+000
         vertex -4.151633e+000 0.000000e+000 4.331737e+000
      endloop
   endfacet
   facet normal 7.316340e-001 0.000000e+000 -6.816977e-001
      outer loop
         vertex -4.151633e+000 1.300000e+002 4.331737e+000
         vertex -4.151633e+000 0.000000e+000 4.331737e+000
         vertex -4.823983e+000 1.300000e+002 3.567799e+000
      endloop
   endfacet
   facet normal 7.691067e-001 0.000000e+000 -6.391203e-001
      outer loop
         vertex -4.823983e+000 1.300000e+002 3.567799e+000
         vertex -4.151633e+000 0.000000e+000 4.331737e+000
         vertex -4.823983e+000 0.000000e+000 3.567799e+000
      endloop
   endfacet
   facet normal 8.363176e-001 0.000000e+000 -5.482453e-001
      outer loop
         vertex -4.823983e+000 1.300000e+002 3.567799e+000
         vertex -4.823983e+000 0.000000e+000 3.567799e+000
         vertex -5.357555e+000 1.300000e+002 2.701222e+000
      endloop
   endfacet
   facet normal 8.660557e-001 0.000000e+000 -4.999475e-001
      outer loop
         vertex -5.357555e+000 1.300000e+002 2.701222e+000
         vertex -4.823983e+000 0.000000e+000 3.567799e+000
         vertex -5.357555e+000 0.000000e+000 2.701222e+000
      endloop
   endfacet
   facet normal 9.169418e-001 0.000000e+000 -3.990209e-001
      outer loop
         vertex -5.357555e+000 1.300000e+002 2.701222e+000
         vertex -5.357555e+000 0.000000e+000 2.701222e+000
         vertex -5.737000e+000 1.300000e+002 1.756937e+000
      endloop
   endfacet
   facet normal 9.380898e-001 0.000000e+000 -3.463921e-001
      outer loop
         vertex -5.737000e+000 1.300000e+002 1.756937e+000
         vertex -5.357555e+000 0.000000e+000 2.701222e+000
         vertex -5.737000e+000 0.000000e+000 1.756937e+000
      endloop
   endfacet
   facet normal 9.711873e-001 0.000000e+000 -2.383175e-001
      outer loop
         vertex -5.737000e+000 1.300000e+002 1.756937e+000
         vertex -5.737000e+000 0.000000e+000 1.756937e+000
         vertex -5.951403e+000 1.300000e+002 7.621069e-001
      endloop
   endfacet
   facet normal 9.831368e-001 0.000000e+000 -1.828716e-001
      outer loop
         vertex -5.951403e+000 1.300000e+002 7.621069e-001
         vertex -5.737000e+000 0.000000e+000 1.756937e+000
         vertex -5.951403e+000 0.000000e+000 7.621069e-001
      endloop
   endfacet
   facet normal 9.974935e-001 0.000000e+000 -7.075802e-002
      outer loop
         vertex -5.951403e+000 1.300000e+002 7.621069e-001
         vertex -5.951403e+000 0.000000e+000 7.621069e-001
         vertex -5.994594e+000 1.300000e+002 -2.546472e-001
      endloop
   endfacet
   facet normal 9.999007e-001 0.000000e+000 -1.409025e-002
      outer loop
         vertex -5.994594e+000 1.300000e+002 -2.546472e-001
         vertex -5.951403e+000 0.000000e+000 7.621069e-001
         vertex -5.994594e+000 0.000000e+000 -2.546472e-001
      endloop
   endfacet
   facet normal 9.951036e-001 0.000000e+000 9.883699e-002
      outer loop
         vertex -5.994594e+000 1.300000e+002 -2.546472e-001
         vertex -5.994594e+000 0.000000e+000 -2.546472e-001
         vertex -5.865331e+000 1.300000e+002 -1.264076e+000
      endloop
   endfacet
   facet normal 9.878993e-001 0.000000e+000 1.550965e-001
      outer loop
         vertex -5.865331e+000 1.300000e+002 -1.264076e+000
         vertex -5.994594e+000 0.000000e+000 -2.546472e-001
         vertex -5.865331e+000 0.000000e+000 -1.264076e+000
      endloop
   endfacet
   facet normal 9.640865e-001 0.000000e+000 2.655886e-001
      outer loop
         vertex -5.865331e+000 1.300000e+002 -1.264076e+000
         vertex -5.865331e+000 0.000000e+000 -1.264076e+000
         vertex -5.567334e+000 1.300000e+002 -2.237139e+000
      endloop
   endfacet
   facet normal 9.474779e-001 0.000000e+000 3.198213e-001
      outer loop
         vertex -5.567334e+000 1.300000e+002 -2.237139e+000
         vertex -5.865331e+000 0.000000e+000 -1.264076e+000
         vertex -5.567334e+000 0.000000e+000 -2.237139e+000
      endloop
   endfacet
   facet normal 9.053342e-001 0.000000e+000 4.246998e-001
      outer loop
         vertex -5.567334e+000 1.300000e+002 -2.237139e+000
         vertex -5.567334e+000 0.000000e+000 -2.237139e+000
         vertex -5.109175e+000 1.300000e+002 -3.145844e+000
      endloop
   endfacet
   facet normal 8.797992e-001 0.000000e+000 4.753455e-001
      outer loop
         vertex -5.109175e+000 1.300000e+002 -3.145844e+000
         vertex -5.567334e+000 0.000000e+000 -2.237139e+000
         vertex -5.109175e+000 0.000000e+000 -3.145844e+000
      endloop
   endfacet
   facet normal 8.205372e-001 0.000000e+000 5.715931e-001
      outer loop
         vertex -5.109175e+000 1.300000e+002 -3.145844e+000
         vertex -5.109175e+000 0.000000e+000 -3.145844e+000
         vertex -4.504034e+000 1.300000e+002 -3.964048e+000
      endloop
   endfacet
   facet normal 7.868103e-001 0.000000e+000 6.171949e-001
      outer loop
         vertex -4.504034e+000 1.300000e+002 -3.964048e+000
         vertex -5.109175e+000 0.000000e+000 -3.145844e+000
         vertex -4.504034e+000 0.000000e+000 -3.964048e+000
      endloop
   endfacet
   facet normal 7.121348e-001 0.000000e+000 7.020428e-001
      outer loop
         vertex -4.504034e+000 1.300000e+002 -3.964048e+000
         vertex -4.504034e+000 0.000000e+000 -3.964048e+000
         vertex -3.769320e+000 1.300000e+002 -4.668214e+000
      endloop
   endfacet
   facet normal 6.711863e-001 0.000000e+000 7.412888e-001
      outer loop
         vertex -3.769320e+000 1.300000e+002 -4.668214e+000
         vertex -4.504034e+000 0.000000e+000 -3.964048e+000
         vertex -3.769320e+000 0.000000e+000 -4.668214e+000
      endloop
   endfacet
   facet normal 5.832456e-001 0.000000e+000 8.122959e-001
      outer loop
         vertex -3.769320e+000 1.300000e+002 -4.668214e+000
         vertex -3.769320e+000 0.000000e+000 -4.668214e+000
         vertex -2.926170e+000 1.300000e+002 -5.238085e+000
      endloop
   endfacet
   facet normal 5.362535e-001 0.000000e+000 8.440570e-001
      outer loop
         vertex -2.926170e+000 1.300000e+002 -5.238085e+000
         vertex -3.769320e+000 0.000000e+000 -4.668214e+000
         vertex -2.926170e+000 0.000000e+000 -5.238085e+000
      endloop
   endfacet
   facet normal 4.375775e-001 0.000000e+000 8.991807e-001
      outer loop
         vertex -2.926170e+000 1.300000e+002 -5.238085e+000
         vertex -2.926170e+000 0.000000e+000 -5.238085e+000
         vertex -1.998839e+000 1.300000e+002 -5.657265e+000
      endloop
   endfacet
   facet normal 3.858936e-001 0.000000e+000 9.225433e-001
      outer loop
         vertex -1.998839e+000 1.300000e+002 -5.657265e+000
         vertex -2.926170e+000 0.000000e+000 -5.238085e+000
         vertex -1.998839e+000 0.000000e+000 -5.657265e+000
      endloop
   endfacet
   facet normal 2.793211e-001 0.000000e+000 9.601977e-001
      outer loop
         vertex -1.998839e+000 1.300000e+002 -5.657265e+000
         vertex -1.998839e+000 0.000000e+000 -5.657265e+000
         vertex -1.014005e+000 1.300000e+002 -5.913695e+000
      endloop
   endfacet
   facet normal 2.244324e-001 0.000000e+000 9.744897e-001
      outer loop
         vertex -1.014005e+000 1.300000e+002 -5.913695e+000
         vertex -1.998839e+000 0.000000e+000 -5.657265e+000
         vertex -1.014005e+000 0.000000e+000 -5.913695e+000
      endloop
   endfacet
   facet normal 1.130291e-001 0.000000e+000 9.935917e-001
      outer loop
         vertex -1.014005e+000 1.300000e+002 -5.913695e+000
         vertex -1.014005e+000 0.000000e+000 -5.913695e+000
         vertex -1.469576e-015 1.300000e+002 -6.000000e+000
      endloop
   endfacet
   facet normal 5.651454e-002 0.000000e+000 9.984018e-001
      outer loop
         vertex -1.469576e-015 1.300000e+002 -6.000000e+000
         vertex -1.014005e+000 0.000000e+000 -5.913695e+000
         vertex -1.469576e-015 0.000000e+000 -6.000000e+000
      endloop
   endfacet
   facet normal 2.829130e-002 0.000000e+000 9.995998e-001
      outer loop
         vertex 6.784474e-001 1.300000e+002 7.971179e+000
         vertex 2.939152e-015 1.300000e+002 8.000000e+000
         vertex 9.797175e-016 0.000000e+000 8.000000e+000
      endloop
   endfacet
   facet normal -2.829130e-002 0.000000e+000 9.995998e-001
      outer loop
         vertex 9.797175e-016 0.000000e+000 8.000000e+000
         vertex 2.939152e-015 1.300000e+002 8.000000e+000
         vertex -6.784474e-001 0.000000e+000 7.971179e+000
      endloop
   endfacet
   facet normal -5.658260e-002 0.000000e+000 9.983979e-001
      outer loop
         vertex 2.939152e-015 1.300000e+002 8.000000e+000
         vertex -6.784474e-001 1.300000e+002 7.971179e+000
         vertex -6.784474e-001 0.000000e+000 7.971179e+000
      endloop
   endfacet
   facet normal -1.409813e-001 0.000000e+000 9.900123e-001
      outer loop
         vertex -6.784474e-001 0.000000e+000 7.971179e+000
         vertex -6.784474e-001 1.300000e+002 7.971179e+000
         vertex -2.015824e+000 1.300000e+002 7.741863e+000
      endloop
   endfacet
   facet normal -1.968844e-001 0.000000e+000 9.804267e-001
      outer loop
         vertex -6.784474e-001 0.000000e+000 7.971179e+000
         vertex -2.015824e+000 1.300000e+002 7.741863e+000
         vertex -2.015824e+000 0.000000e+000 7.741863e+000
      endloop
   endfacet
   facet normal -3.062663e-001 0.000000e+000 9.519458e-001
      outer loop
         vertex -2.015824e+000 0.000000e+000 7.741863e+000
         vertex -2.015824e+000 1.300000e+002 7.741863e+000
         vertex -3.295210e+000 1.300000e+002 7.289828e+000
      endloop
   endfacet
   facet normal -3.597453e-001 0.000000e+000 9.330506e-001
      outer loop
         vertex -2.015824e+000 0.000000e+000 7.741863e+000
         vertex -3.295210e+000 1.300000e+002 7.289828e+000
         vertex -3.295210e+000 0.000000e+000 7.289828e+000
      endloop
   endfacet
   facet normal -4.627406e-001 0.000000e+000 8.864937e-001
      outer loop
         vertex -3.295210e+000 0.000000e+000 7.289828e+000
         vertex -3.295210e+000 1.300000e+002 7.289828e+000
         vertex -4.479798e+000 1.300000e+002 6.628077e+000
      endloop
   endfacet
   facet normal -5.122570e-001 0.000000e+000 8.588322e-001
      outer loop
         vertex -3.295210e+000 0.000000e+000 7.289828e+000
         vertex -4.479798e+000 1.300000e+002 6.628077e+000
         vertex -4.479798e+000 0.000000e+000 6.628077e+000
      endloop
   endfacet
   facet normal -6.059027e-001 0.000000e+000 7.955388e-001
      outer loop
         vertex -4.479798e+000 0.000000e+000 6.628077e+000
         vertex -4.479798e+000 1.300000e+002 6.628077e+000
         vertex -5.535511e+000 1.300000e+002 5.775649e+000
      endloop
   endfacet
   facet normal -6.500320e-001 0.000000e+000 7.599069e-001
      outer loop
         vertex -4.479798e+000 0.000000e+000 6.628077e+000
         vertex -5.535511e+000 1.300000e+002 5.775649e+000
         vertex -5.535511e+000 0.000000e+000 5.775649e+000
      endloop
   endfacet
   facet normal -7.316340e-001 0.000000e+000 6.816977e-001
      outer loop
         vertex -5.535511e+000 0.000000e+000 5.775649e+000
         vertex -5.535511e+000 1.300000e+002 5.775649e+000
         vertex -6.431977e+000 1.300000e+002 4.757065e+000
      endloop
   endfacet
   facet normal -7.691067e-001 0.000000e+000 6.391203e-001
      outer loop
         vertex -5.535511e+000 0.000000e+000 5.775649e+000
         vertex -6.431977e+000 1.300000e+002 4.757065e+000
         vertex -6.431977e+000 0.000000e+000 4.757065e+000
      endloop
   endfacet
   facet normal -8.363176e-001 0.000000e+000 5.482453e-001
      outer loop
         vertex -6.431977e+000 0.000000e+000 4.757065e+000
         vertex -6.431977e+000 1.300000e+002 4.757065e+000
         vertex -7.143407e+000 1.300000e+002 3.601630e+000
      endloop
   endfacet
   facet normal -8.660557e-001 0.000000e+000 4.999475e-001
      outer loop
         vertex -6.431977e+000 0.000000e+000 4.757065e+000
         vertex -7.143407e+000 1.300000e+002 3.601630e+000
         vertex -7.143407e+000 0.000000e+000 3.601630e+000
      endloop
   endfacet
   facet normal -9.169418e-001 0.000000e+000 3.990209e-001
      outer loop
         vertex -7.143407e+000 0.000000e+000 3.601630e+000
         vertex -7.143407e+000 1.300000e+002 3.601630e+000
         vertex -7.649333e+000 1.300000e+002 2.342582e+000
      endloop
   endfacet
   facet normal -9.380898e-001 0.000000e+000 3.463921e-001
      outer loop
         vertex -7.143407e+000 0.000000e+000 3.601630e+000
         vertex -7.649333e+000 1.300000e+002 2.342582e+000
         vertex -7.649333e+000 0.000000e+000 2.342582e+000
      endloop
   endfacet
   facet normal -9.711873e-001 0.000000e+000 2.383175e-001
      outer loop
         vertex -7.649333e+000 0.000000e+000 2.342582e+000
         vertex -7.649333e+000 1.300000e+002 2.342582e+000
         vertex -7.935204e+000 1.300000e+002 1.016142e+000
      endloop
   endfacet
   facet normal -9.831368e-001 0.000000e+000 1.828716e-001
      outer loop
         vertex -7.649333e+000 0.000000e+000 2.342582e+000
         vertex -7.935204e+000 1.300000e+002 1.016142e+000
         vertex -7.935204e+000 0.000000e+000 1.016142e+000
      endloop
   endfacet
   facet normal -9.974935e-001 0.000000e+000 7.075802e-002
      outer loop
         vertex -7.935204e+000 0.000000e+000 1.016142e+000
         vertex -7.935204e+000 1.300000e+002 1.016142e+000
         vertex -7.992792e+000 1.300000e+002 -3.395296e-001
      endloop
   endfacet
   facet normal -9.999007e-001 0.000000e+000 1.409025e-002
      outer loop
         vertex -7.935204e+000 0.000000e+000 1.016142e+000
         vertex -7.992792e+000 1.300000e+002 -3.395296e-001
         vertex -7.992792e+000 0.000000e+000 -3.395296e-001
      endloop
   endfacet
   facet normal -9.951036e-001 0.000000e+000 -9.883699e-002
      outer loop
         vertex -7.992792e+000 0.000000e+000 -3.395296e-001
         vertex -7.992792e+000 1.300000e+002 -3.395296e-001
         vertex -7.820442e+000 1.300000e+002 -1.685434e+000
      endloop
   endfacet
   facet normal -9.878993e-001 0.000000e+000 -1.550965e-001
      outer loop
         vertex -7.992792e+000 0.000000e+000 -3.395296e-001
         vertex -7.820442e+000 1.300000e+002 -1.685434e+000
         vertex -7.820442e+000 0.000000e+000 -1.685434e+000
      endloop
   endfacet
   facet normal -9.640865e-001 0.000000e+000 -2.655886e-001
      outer loop
         vertex -7.820442e+000 0.000000e+000 -1.685434e+000
         vertex -7.820442e+000 1.300000e+002 -1.685434e+000
         vertex -7.423112e+000 1.300000e+002 -2.982852e+000
      endloop
   endfacet
   facet normal -9.474779e-001 0.000000e+000 -3.198213e-001
      outer loop
         vertex -7.820442e+000 0.000000e+000 -1.685434e+000
         vertex -7.423112e+000 1.300000e+002 -2.982852e+000
         vertex -7.423112e+000 0.000000e+000 -2.982852e+000
      endloop
   endfacet
   facet normal -9.053342e-001 0.000000e+000 -4.246998e-001
      outer loop
         vertex -7.423112e+000 0.000000e+000 -2.982852e+000
         vertex -7.423112e+000 1.300000e+002 -2.982852e+000
         vertex -6.812233e+000 1.300000e+002 -4.194458e+000
      endloop
   endfacet
   facet normal -8.797992e-001 0.000000e+000 -4.753455e-001
      outer loop
         vertex -7.423112e+000 0.000000e+000 -2.982852e+000
         vertex -6.812233e+000 1.300000e+002 -4.194458e+000
         vertex -6.812233e+000 0.000000e+000 -4.194458e+000
      endloop
   endfacet
   facet normal -8.205372e-001 0.000000e+000 -5.715931e-001
      outer loop
         vertex -6.812233e+000 0.000000e+000 -4.194458e+000
         vertex -6.812233e+000 1.300000e+002 -4.194458e+000
         vertex -6.005378e+000 1.300000e+002 -5.285398e+000
      endloop
   endfacet
   facet normal -7.868103e-001 0.000000e+000 -6.171949e-001
      outer loop
         vertex -6.812233e+000 0.000000e+000 -4.194458e+000
         vertex -6.005378e+000 1.300000e+002 -5.285398e+000
         vertex -6.005378e+000 0.000000e+000 -5.285398e+000
      endloop
   endfacet
   facet normal -7.121348e-001 0.000000e+000 -7.020428e-001
      outer loop
         vertex -6.005378e+000 0.000000e+000 -5.285398e+000
         vertex -6.005378e+000 1.300000e+002 -5.285398e+000
         vertex -5.025760e+000 1.300000e+002 -6.224286e+000
      endloop
   endfacet
   facet normal -6.711863e-001 0.000000e+000 -7.412888e-001
      outer loop
         vertex -6.005378e+000 0.000000e+000 -5.285398e+000
         vertex -5.025760e+000 1.300000e+002 -6.224286e+000
         vertex -5.025760e+000 0.000000e+000 -6.224286e+000
      endloop
   endfacet
   facet normal -5.832456e-001 0.000000e+000 -8.122959e-001
      outer loop
         vertex -5.025760e+000 0.000000e+000 -6.224286e+000
         vertex -5.025760e+000 1.300000e+002 -6.224286e+000
         vertex -3.901560e+000 1.300000e+002 -6.984113e+000
      endloop
   endfacet
   facet normal -5.362535e-001 0.000000e+000 -8.440570e-001
      outer loop
         vertex -5.025760e+000 0.000000e+000 -6.224286e+000
         vertex -3.901560e+000 1.300000e+002 -6.984113e+000
         vertex -3.901560e+000 0.000000e+000 -6.984113e+000
      endloop
   endfacet
   facet normal -4.375775e-001 0.000000e+000 -8.991807e-001
      outer loop
         vertex -3.901560e+000 0.000000e+000 -6.984113e+000
         vertex -3.901560e+000 1.300000e+002 -6.984113e+000
         vertex -2.665118e+000 1.300000e+002 -7.543019e+000
      endloop
   endfacet
   facet normal -3.858936e-001 0.000000e+000 -9.225433e-001
      outer loop
         vertex -3.901560e+000 0.000000e+000 -6.984113e+000
         vertex -2.665118e+000 1.300000e+002 -7.543019e+000
         vertex -2.665118e+000 0.000000e+000 -7.543019e+000
      endloop
   endfacet
   facet normal -2.793211e-001 0.000000e+000 -9.601977e-001
      outer loop
         vertex -2.665118e+000 0.000000e+000 -7.543019e+000
         vertex -2.665118e+000 1.300000e+002 -7.543019e+000
         vertex -1.352007e+000 1.300000e+002 -7.884927e+000
      endloop
   endfacet
   facet normal -2.244324e-001 0.000000e+000 -9.744897e-001
      outer loop
         vertex -2.665118e+000 0.000000e+000 -7.543019e+000
         vertex -1.352007e+000 1.300000e+002 -7.884927e+000
         vertex -1.352007e+000 0.000000e+000 -7.884927e+000
      endloop
   endfacet
   facet normal -1.130291e-001 0.000000e+000 -9.935917e-001
      outer loop
         vertex -1.352007e+000 0.000000e+000 -7.884927e+000
         vertex -1.352007e+000 1.300000e+002 -7.884927e+000
         vertex 0.000000e+000 1.300000e+002 -8.000000e+000
      endloop
   endfacet
   facet normal -5.651454e-002 0.000000e+000 -9.984018e-001
      outer loop
         vertex -1.352007e+000 0.000000e+000 -7.884927e+000
         vertex 0.000000e+000 1.300000e+002 -8.000000e+000
         vertex 0.000000e+000 0.000000e+000 -8.000000e+000
      endloop
   endfacet
   facet normal 5.651454e-002 0.000000e+000 -9.984018e-001
      outer loop
         vertex 0.000000e+000 0.000000e+000 -8.000000e+000
         vertex 0.000000e+000 1.300000e+002 -8.000000e+000
         vertex 1.352007e+000 1.300000e+002 -7.884927e+000
      endloop
   endfacet
   facet normal 1.130291e-001 0.000000e+000 -9.935917e-001
      outer loop
         vertex 0.000000e+000 0.000000e+000 -8.000000e+000
         vertex 1.352007e+000 1.300000e+002 -7.884927e+000
         vertex 1.352007e+000 0.000000e+000 -7.884927e+000
      endloop
   endfacet
   facet normal 2.244324e-001 0.000000e+000 -9.744897e-001
      outer loop
         vertex 1.352007e+000 0.000000e+000 -7.884927e+000
         vertex 1.352007e+000 1.300000e+002 -7.884927e+000
         vertex 2.665118e+000 1.300000e+002 -7.543019e+000
      endloop
   endfacet
   facet normal 2.793211e-001 0.000000e+000 -9.601977e-001
      outer loop
         vertex 1.352007e+000 0.000000e+000 -7.884927e+000
         vertex 2.665118e+000 1.300000e+002 -7.543019e+000
         vertex 2.665118e+000 0.000000e+000 -7.543019e+000
      endloop
   endfacet
   facet normal 3.858936e-001 0.000000e+000 -9.225433e-001
      outer loop
         vertex 2.665118e+000 0.000000e+000 -7.543019e+000
         vertex 2.665118e+000 1.300000e+002 -7.543019e+000
         vertex 3.901560e+000 1.300000e+002 -6.984113e+000
      endloop
   endfacet
   facet normal 4.375775e-001 0.000000e+000 -8.991807e-001
      outer loop
         vertex 2.665118e+000 0.000000e+000 -7.543019e+000
         vertex 3.901560e+000 1.300000e+002 -6.984113e+000
         vertex 3.901560e+000 0.000000e+000 -6.984113e+000
      endloop
   endfacet
   facet normal 5.362535e-001 0.000000e+000 -8.440570e-001
      outer loop
         vertex 3.901560e+000 0.000000e+000 -6.984113e+000
         vertex 3.901560e+000 1.300000e+002 -6.984113e+000
         vertex 5.025760e+000 1.300000e+002 -6.224286e+000
      endloop
   endfacet
   facet normal 5.832456e-001 0.000000e+000 -8.122959e-001
      outer loop
         vertex 3.901560e+000 0.000000e+000 -6.984113e+000
         vertex 5.025760e+000 1.300000e+002 -6.224286e+000
         vertex 5.025760e+000 0.000000e+000 -6.224286e+000
      endloop
   endfacet
   facet normal 6.711863e-001 0.000000e+000 -7.412888e-001
      outer loop
         vertex 5.025760e+000 0.000000e+000 -6.224286e+000
         vertex 5.025760e+000 1.300000e+002 -6.224286e+000
         vertex 6.005378e+000 1.300000e+002 -5.285398e+000
      endloop
   endfacet
   facet normal 7.121348e-001 0.000000e+000 -7.020428e-001
      outer loop
         vertex 5.025760e+000 0.000000e+000 -6.224286e+000
         vertex 6.005378e+000 1.300000e+002 -5.285398e+000
         vertex 6.005378e+000 0.000000e+000 -5.285398e+000
      endloop
   endfacet
   facet normal 7.868103e-001 0.000000e+000 -6.171949e-001
      outer loop
         vertex 6.005378e+000 0.000000e+000 -5.285398e+000
         vertex 6.005378e+000 1.300000e+002 -5.285398e+000
         vertex 6.812233e+000 1.300000e+002 -4.194458e+000
      endloop
   endfacet
   facet normal 8.205372e-001 0.000000e+000 -5.715931e-001
      outer loop
         vertex 6.005378e+000 0.000000e+000 -5.285398e+000
         vertex 6.812233e+000 1.300000e+002 -4.194458e+000
         vertex 6.812233e+000 0.000000e+000 -4.194458e+000
      endloop
   endfacet
   facet normal 8.797992e-001 0.000000e+000 -4.753455e-001
      outer loop
         vertex 6.812233e+000 0.000000e+000 -4.194458e+000
         vertex 6.812233e+000 1.300000e+002 -4.194458e+000
         vertex 7.423112e+000 1.300000e+002 -2.982852e+000
      endloop
   endfacet
   facet normal 9.053342e-001 0.000000e+000 -4.246998e-001
      outer loop
         vertex 6.812233e+000 0.000000e+000 -4.194458e+000
         vertex 7.423112e+000 1.300000e+002 -2.982852e+000
         vertex 7.423112e+000 0.000000e+000 -2.982852e+000
      endloop
   endfacet
   facet normal 9.474779e-001 0.000000e+000 -3.198213e-001
      outer loop
         vertex 7.423112e+000 0.000000e+000 -2.982852e+000
         vertex 7.423112e+000 1.300000e+002 -2.982852e+000
         vertex 7.820442e+000 1.300000e+002 -1.685434e+000
      endloop
   endfacet
   facet normal 9.640865e-001 0.000000e+000 -2.655886e-001
      outer loop
         vertex 7.423112e+000 0.000000e+000 -2.982852e+000
         vertex 7.820442e+000 1.300000e+002 -1.685434e+000
         vertex 7.820442e+000 0.000000e+000 -1.685434e+000
      endloop
   endfacet
   facet normal 9.878993e-001 0.000000e+000 -1.550965e-001
      outer loop
         vertex 7.820442e+000 0.000000e+000 -1.685434e+000
         vertex 7.820442e+000 1.300000e+002 -1.685434e+000
         vertex 7.992792e+000 1.300000e+002 -3.395296e-001
      endloop
   endfacet
   facet normal 9.951036e-001 0.000000e+000 -9.883699e-002
      outer loop
         vertex 7.820442e+000 0.000000e+000 -1.685434e+000
         vertex 7.992792e+000 1.300000e+002 -3.395296e-001
         vertex 7.992792e+000 0.000000e+000 -3.395296e-001
      endloop
   endfacet
   facet normal 9.999007e-001 0.000000e+000 1.409025e-002
      outer loop
         vertex 7.992792e+000 0.000000e+000 -3.395296e-001
         vertex 7.992792e+000 1.300000e+002 -3.395296e-001
         vertex 7.935204e+000 1.300000e+002 1.016142e+000
      endloop
   endfacet
   facet normal 9.974935e-001 0.000000e+000 7.075802e-002
      outer loop
         vertex 7.992792e+000 0.000000e+000 -3.395296e-001
         vertex 7.935204e+000 1.300000e+002 1.016142e+000
         vertex 7.935204e+000 0.000000e+000 1.016142e+000
      endloop
   endfacet
   facet normal 9.831368e-001 0.000000e+000 1.828716e-001
      outer loop
         vertex 7.935204e+000 0.000000e+000 1.016142e+000
         vertex 7.935204e+000 1.300000e+002 1.016142e+000
         vertex 7.649333e+000 1.300000e+002 2.342582e+000
      endloop
   endfacet
   facet normal 9.711873e-001 0.000000e+000 2.383175e-001
      outer loop
         vertex 7.935204e+000 0.000000e+000 1.016142e+000
         vertex 7.649333e+000 1.300000e+002 2.342582e+000
         vertex 7.649333e+000 0.000000e+000 2.342582e+000
      endloop
   endfacet
   facet normal 9.380898e-001 0.000000e+000 3.463921e-001
      outer loop
         vertex 7.649333e+000 0.000000e+000 2.342582e+000
         vertex 7.649333e+000 1.300000e+002 2.342582e+000
         vertex 7.143407e+000 1.300000e+002 3.601630e+000
      endloop
   endfacet
   facet normal 9.169418e-001 0.000000e+000 3.990209e-001
      outer loop
         vertex 7.649333e+000 0.000000e+000 2.342582e+000
         vertex 7.143407e+000 1.300000e+002 3.601630e+000
         vertex 7.143407e+000 0.000000e+000 3.601630e+000
      endloop
   endfacet
   facet normal 8.660557e-001 0.000000e+000 4.999475e-001
      outer loop
         vertex 7.143407e+000 0.000000e+000 3.601630e+000
         vertex 7.143407e+000 1.300000e+002 3.601630e+000
         vertex 6.431977e+000 1.300000e+002 4.757065e+000
      endloop
   endfacet
   facet normal 8.363176e-001 0.000000e+000 5.482453e-001
      outer loop
         vertex 7.143407e+000 0.000000e+000 3.601630e+000
         vertex 6.431977e+000 1.300000e+002 4.757065e+000
         vertex 6.431977e+000 0.000000e+000 4.757065e+000
      endloop
   endfacet
   facet normal 7.691067e-001 0.000000e+000 6.391203e-001
      outer loop
         vertex 6.431977e+000 0.000000e+000 4.757065e+000
         vertex 6.431977e+000 1.300000e+002 4.757065e+000
         vertex 5.535511e+000 1.300000e+002 5.775649e+000
      endloop
   endfacet
   facet normal 7.316340e-001 0.000000e+000 6.816977e-001
      outer loop
         vertex 6.431977e+000 0.000000e+000 4.757065e+000
         vertex 5.535511e+000 1.300000e+002 5.775649e+000
         vertex 5.535511e+000 0.000000e+000 5.775649e+000
      endloop
   endfacet
   facet normal 6.500320e-001 0.000000e+000 7.599069e-001
      outer loop
         vertex 5.535511e+000 0.000000e+000 5.775649e+000
         vertex 5.535511e+000 1.300000e+002 5.775649e+000
         vertex 4.479798e+000 1.300000e+002 6.628077e+000
      endloop
   endfacet
   facet normal 6.059027e-001 0.000000e+000 7.955388e-001
      outer loop
         vertex 5.535511e+000 0.000000e+000 5.775649e+000
         vertex 4.479798e+000 1.300000e+002 6.628077e+000
         vertex 4.479798e+000 0.000000e+000 6.628077e+000
      endloop
   endfacet
   facet normal 5.122570e-001 0.000000e+000 8.588322e-001
      outer loop
         vertex 4.479798e+000 0.000000e+000 6.628077e+000
         vertex 4.479798e+000 1.300000e+002 6.628077e+000
         vertex 3.295210e+000 1.300000e+002 7.289828e+000
      endloop
   endfacet
   facet normal 4.627406e-001 0.000000e+000 8.864937e-001
      outer loop
         vertex 4.479798e+000 0.000000e+000 6.628077e+000
         vertex 3.295210e+000 1.300000e+002 7.289828e+000
         vertex 3.295210e+000 0.000000e+000 7.289828e+000
      endloop
   endfacet
   facet normal 3.597453e-001 0.000000e+000 9.330506e-001
      outer loop
         vertex 3.295210e+000 0.000000e+000 7.289828e+000
         vertex 3.295210e+000 1.300000e+002 7.289828e+000
         vertex 2.015824e+000 1.300000e+002 7.741863e+000
      endloop
   endfacet
   facet normal 3.062663e-001 0.000000e+000 9.519458e-001
      outer loop
         vertex 3.295210e+000 0.000000e+000 7.289828e+000
         vertex 2.015824e+000 1.300000e+002 7.741863e+000
         vertex 2.015824e+000 0.000000e+000 7.741863e+000
      endloop
   endfacet
   facet normal 1.968844e-001 0.000000e+000 9.804267e-001
      outer loop
         vertex 2.015824e+000 0.000000e+000 7.741863e+000
         vertex 2.015824e+000 1.300000e+002 7.741863e+000
         vertex 6.784474e-001 1.300000e+002 7.971179e+000
      endloop
   endfacet
   facet normal 1.409813e-001 0.000000e+000 9.900123e-001
      outer loop
         vertex 2.015824e+000 0.000000e+000 7.741863e+000
         vertex 6.784474e-001 1.300000e+002 7.971179e+000
         vertex 6.784474e-001 0.000000e+000 7.971179e+000
      endloop
   endfacet
   facet normal 5.658260e-002 0.000000e+000 9.983979e-001
      outer loop
         vertex 6.784474e-001 0.000000e+000 7.971179e+000
         vertex 6.784474e-001 1.300000e+002 7.971179e+000
         vertex 9.797175e-016 0.000000e+000 8.000000e+000
      endloop
   endfacet
   facet normal 0.000000e+000 1.000000e+000 0.000000e+000
      outer loop
         vertex 5.109175e+000 1.300000e+002 -3.145844e+000
         vertex 6.812233e+000 1.300000e+002 -4.194458e+000
         vertex 4.504034e+000 1.300000e+002 -3.964048e+000
      endloop
   endfacet
   facet normal 0.000000e+000 1.000000e+000 0.000000e+000
      outer loop
         vertex 4.504034e+000 1.300000e+002 -3.964048e+000
         vertex 6.812233e+000 1.300000e+002 -4.194458e+000
         vertex 6.005378e+000 1.300000e+002 -5.285398e+000
      endloop
   endfacet
   facet normal 0.000000e+000 1.000000e+000 0.000000e+000
      outer loop
         vertex 4.504034e+000 1.300000e+002 -3.964048e+000
         vertex 6.005378e+000 1.300000e+002 -5.285398e+000
         vertex 3.769320e+000 1.300000e+002 -4.668214e+000
      endloop
   endfacet
   facet normal 0.000000e+000 1.000000e+000 0.000000e+000
      outer loop
         vertex 3.769320e+000 1.300000e+002 -4.668214e+000
         vertex 6.005378e+000 1.300000e+002 -5.285398e+000
         vertex 5.025760e+000 1.300000e+002 -6.224286e+000
      endloop
   endfacet
   facet normal 0.000000e+000 1.000000e+000 0.000000e+000
      outer loop
         vertex 3.769320e+000 1.300000e+002 -4.668214e+000
         vertex 5.025760e+000 1.300000e+002 -6.224286e+000
         vertex 2.926170e+000 1.300000e+002 -5.238085e+000
      endloop
   endfacet
   facet normal 0.000000e+000 1.000000e+000 0.000000e+000
      outer loop
         vertex 2.926170e+000 1.300000e+002 -5.238085e+000
         vertex 5.025760e+000 1.300000e+002 -6.224286e+000
         vertex 3.901560e+000 1.300000e+002 -6.984113e+000
      endloop
   endfacet
   facet normal 0.000000e+000 1.000000e+000 0.000000e+000
      outer loop
         vertex 2.926170e+000 1.300000e+002 -5.238085e+000
         vertex 3.901560e+000 1.300000e+002 -6.984113e+000
         vertex 1.998839e+000 1.300000e+002 -5.657265e+000
      endloop
   endfacet
   facet normal 0.000000e+000 1.000000e+000 0.000000e+000
      outer loop
         vertex 1.998839e+000 1.300000e+002 -5.657265e+000
         vertex 3.901560e+000 1.300000e+002 -6.984113e+000
         vertex 2.665118e+000 1.300000e+002 -7.543019e+000
      endloop
   endfacet
   facet normal 0.000000e+000 1.000000e+000 0.000000e+000
      outer loop
         vertex 1.998839e+000 1.300000e+002 -5.657265e+000
         vertex 2.665118e+000 1.300000e+002 -7.543019e+000
         vertex 1.014005e+000 1.300000e+002 -5.913695e+000
      endloop
   endfacet
   facet normal 0.000000e+000 1.000000e+000 0.000000e+000
      outer loop
         vertex 1.014005e+000 1.300000e+002 -5.913695e+000
         vertex 2.665118e+000 1.300000e+002 -7.543019e+000
         vertex 1.352007e+000 1.300000e+002 -7.884927e+000
      endloop
   endfacet
   facet normal 0.000000e+000 1.000000e+000 0.000000e+000
      outer loop
         vertex 1.014005e+000 1.300000e+002 -5.913695e+000
         vertex 1.352007e+000 1.300000e+002 -7.884927e+000
         vertex 0.000000e+000 1.300000e+002 -6.000000e+000
      endloop
   endfacet
   facet normal 0.000000e+000 1.000000e+000 0.000000e+000
      outer loop
         vertex 0.000000e+000 1.300000e+002 -6.000000e+000
         vertex 1.352007e+000 1.300000e+002 -7.884927e+000
         vertex 0.000000e+000 1.300000e+002 -8.000000e+000
      endloop
   endfacet
   facet normal 0.000000e+000 1.000000e+000 0.000000e+000
      outer loop
         vertex 0.000000e+000 1.300000e+002 -6.000000e+000
         vertex 0.000000e+000 1.300000e+002 -8.000000e+000
         vertex -1.014005e+000 1.300000e+002 -5.913695e+000
      endloop
   endfacet
   facet normal 0.000000e+000 1.000000e+000 0.000000e+000
      outer loop
         vertex -1.014005e+000 1.300000e+002 -5.913695e+000
         vertex 0.000000e+000 1.300000e+002 -8.000000e+000
         vertex -1.352007e+000 1.300000e+002 -7.884927e+000
      endloop
   endfacet
   facet normal 0.000000e+000 1.000000e+000 0.000000e+000
      outer loop
         vertex -1.014005e+000 1.300000e+002 -5.913695e+000
         vertex -1.352007e+000 1.300000e+002 -7.884927e+000
         vertex -1.998839e+000 1.300000e+002 -5.657265e+000
      endloop
   endfacet
   facet normal 0.000000e+000 1.000000e+000 0.000000e+000
      outer loop
         vertex -1.998839e+000 1.300000e+002 -5.657265e+000
         vertex -1.352007e+000 1.300000e+002 -7.884927e+000
         vertex -2.665118e+000 1.300000e+002 -7.543019e+000
      endloop
   endfacet
   facet normal 0.000000e+000 1.000000e+000 0.000000e+000
      outer loop
         vertex -1.998839e+000 1.300000e+002 -5.657265e+000
         vertex -2.665118e+000 1.300000e+002 -7.543019e+000
         vertex -2.926170e+000 1.300000e+002 -5.238085e+000
      endloop
   endfacet
   facet normal 0.000000e+000 1.000000e+000 0.000000e+000
      outer loop
         vertex -2.926170e+000 1.300000e+002 -5.238085e+000
         vertex -2.665118e+000 1.300000e+002 -7.543019e+000
         vertex -3.901560e+000 1.300000e+002 -6.984113e+000
      endloop
   endfacet
   facet normal 0.000000e+000 1.000000e+000 0.000000e+000
      outer loop
         vertex -2.926170e+000 1.300000e+002 -5.238085e+000
         vertex -3.901560e+000 1.300000e+002 -6.984113e+000
         vertex -3.769320e+000 1.300000e+002 -4.668214e+000
      endloop
   endfacet
   facet normal 0.000000e+000 1.000000e+000 0.000000e+000
      outer loop
         vertex -3.769320e+000 1.300000e+002 -4.668214e+000
         vertex -3.901560e+000 1.300000e+002 -6.984113e+000
         vertex -5.025760e+000 1.300000e+002 -6.224286e+000
      endloop
   endfacet
   facet normal 0.000000e+000 1.000000e+000 0.000000e+000
      outer loop
         vertex -3.769320e+000 1.300000e+002 -4.668214e+000
         vertex -5.025760e+000 1.300000e+002 -6.224286e+000
         vertex -4.504034e+000 1.300000e+002 -3.964048e+000
      endloop
   endfacet
   facet normal 0.000000e+000 1.000000e+000 0.000000e+000
      outer loop
         vertex -4.504034e+000 1.300000e+002 -3.964048e+000
         vertex -5.025760e+000 1.300000e+002 -6.224286e+000
         vertex -6.005378e+000 1.300000e+002 -5.285398e+000
      endloop
   endfacet
   facet normal 0.000000e+000 1.000000e+000 0.000000e+000
      outer loop
         vertex -4.504034e+000 1.300000e+002 -3.964048e+000
         vertex -6.005378e+000 1.300000e+002 -5.285398e+000
         vertex -5.109175e+000 1.300000e+002 -3.145844e+000
      endloop
   endfacet
   facet normal 0.000000e+000 1.000000e+000 0.000000e+000
      outer loop
         vertex -5.109175e+000 1.300000e+002 -3.145844e+000
         vertex -6.005378e+000 1.300000e+002 -5.285398e+000
         vertex -6.812233e+000 1.300000e+002 -4.194458e+000
      endloop
   endfacet
   facet normal 0.000000e+000 1.000000e+000 0.000000e+000
      outer loop
         vertex -5.109175e+000 1.300000e+002 -3.145844e+000
         vertex -6.812233e+000 1.300000e+002 -4.194458e+000
         vertex -5.567334e+000 1.300000e+002 -2.237139e+000
      endloop
   endfacet
   facet normal 0.000000e+000 1.000000e+000 0.000000e+000
      outer loop
         vertex -5.567334e+000 1.300000e+002 -2.237139e+000
         vertex -6.812233e+000 1.300000e+002 -4.194458e+000
         vertex -7.423112e+000 1.300000e+002 -2.982852e+000
      endloop
   endfacet
   facet normal 0.000000e+000 1.000000e+000 0.000000e+000
      outer loop
         vertex -5.567334e+000 1.300000e+002 -2.237139e+000
         vertex -7.423112e+000 1.300000e+002 -2.982852e+000
         vertex -5.865331e+000 1.300000e+002 -1.264076e+000
      endloop
   endfacet
   facet normal 0.000000e+000 1.000000e+000 0.000000e+000
      outer loop
         vertex -5.865331e+000 1.300000e+002 -1.264076e+000
         vertex -7.423112e+000 1.300000e+002 -2.982852e+000
         vertex -7.820442e+000 1.300000e+002 -1.685434e+000
      endloop
   endfacet
   facet normal 0.000000e+000 1.000000e+000 0.000000e+000
      outer loop
         vertex -5.865331e+000 1.300000e+002 -1.264076e+000
         vertex -7.820442e+000 1.300000e+002 -1.685434e+000
         vertex -5.994594e+000 1.300000e+002 -2.546472e-001
      endloop
   endfacet
   facet normal 0.000000e+000 1.000000e+000 0.000000e+000
      outer loop
         vertex -5.994594e+000 1.300000e+002 -2.546472e-001
         vertex -7.820442e+000 1.300000e+002 -1.685434e+000
         vertex -7.992792e+000 1.300000e+002 -3.395296e-001
      endloop
   endfacet
   facet normal 0.000000e+000 1.000000e+000 0.000000e+000
      outer loop
         vertex -5.994594e+000 1.300000e+002 -2.546472e-001
         vertex -7.992792e+000 1.300000e+002 -3.395296e-001
         vertex -5.951403e+000 1.300000e+002 7.621069e-001
      endloop
   endfacet
   facet normal 0.000000e+000 1.000000e+000 0.000000e+000
      outer loop
         vertex -5.951403e+000 1.300000e+002 7.621069e-001
         vertex -7.992792e+000 1.300000e+002 -3.395296e-001
         vertex -7.935204e+000 1.300000e+002 1.016142e+000
      endloop
   endfacet
   facet normal 0.000000e+000 1.000000e+000 0.000000e+000
      outer loop
         vertex -5.951403e+000 1.300000e+002 7.621069e-001
         vertex -7.935204e+000 1.300000e+002 1.016142e+000
         vertex -5.737000e+000 1.300000e+002 1.756937e+000
      endloop
   endfacet
   facet normal 0.000000e+000 1.000000e+000 0.000000e+000
      outer loop
         vertex -5.737000e+000 1.300000e+002 1.756937e+000
         vertex -7.935204e+000 1.300000e+002 1.016142e+000
         vertex -7.649333e+000 1.300000e+002 2.342582e+000
      endloop
   endfacet
   facet normal 0.000000e+000 1.000000e+000 0.000000e+000
      outer loop
         vertex -5.737000e+000 1.300000e+002 1.756937e+000
         vertex -7.649333e+000 1.300000e+002 2.342582e+000
         vertex -5.357555e+000 1.300000e+002 2.701222e+000
      endloop
   endfacet
   facet normal 0.000000e+000 1.000000e+000 0.000000e+000
      outer loop
         vertex -5.357555e+000 1.300000e+002 2.701222e+000
         vertex -7.649333e+000 1.300000e+002 2.342582e+000
         vertex -7.143407e+000 1.300000e+002 3.601630e+000
      endloop
   endfacet
   facet normal 0.000000e+000 1.000000e+000 0.000000e+000
      outer loop
         vertex -5.357555e+000 1.300000e+002 2.701222e+000
         vertex -7.143407e+000 1.300000e+002 3.601630e+000
         vertex -4.823983e+000 1.300000e+002 3.567799e+000
      endloop
   endfacet
   facet normal 0.000000e+000 1.000000e+000 0.000000e+000
      outer loop
         vertex -4.823983e+000 1.300000e+002 3.567799e+000
         vertex -7.143407e+000 1.300000e+002 3.601630e+000
         vertex -6.431977e+000 1.300000e+002 4.757065e+000
      endloop
   endfacet
   facet normal 0.000000e+000 1.000000e+000 0.000000e+000
      outer loop
         vertex -4.823983e+000 1.300000e+002 3.567799e+000
         vertex -6.431977e+000 1.300000e+002 4.757065e+000
         vertex -4.151633e+000 1.300000e+002 4.331737e+000
      endloop
   endfacet
   facet normal 0.000000e+000 1.000000e+000 0.000000e+000
      outer loop
         vertex -4.151633e+000 1.300000e+002 4.331737e+000
         vertex -6.431977e+000 1.300000e+002 4.757065e+000
         vertex -5.535511e+000 1.300000e+002 5.775649e+000
      endloop
   endfacet
   facet normal 0.000000e+000 1.000000e+000 0.000000e+000
      outer loop
         vertex -4.151633e+000 1.300000e+002 4.331737e+000
         vertex -5.535511e+000 1.300000e+002 5.775649e+000
         vertex -3.359849e+000 1.300000e+002 4.971058e+000
      endloop
   endfacet
   facet normal 0.000000e+000 1.000000e+000 0.000000e+000
      outer loop
         vertex -3.359849e+000 1.300000e+002 4.971058e+000
         vertex -5.535511e+000 1.300000e+002 5.775649e+000
         vertex -4.479798e+000 1.300000e+002 6.628077e+000
      endloop
   endfacet
   facet normal 0.000000e+000 1.000000e+000 0.000000e+000
      outer loop
         vertex -3.359849e+000 1.300000e+002 4.971058e+000
         vertex -4.479798e+000 1.300000e+002 6.628077e+000
         vertex -2.471407e+000 1.300000e+002 5.467371e+000
      endloop
   endfacet
   facet normal 0.000000e+000 1.000000e+000 0.000000e+000
      outer loop
         vertex -2.471407e+000 1.300000e+002 5.467371e+000
         vertex -4.479798e+000 1.300000e+002 6.628077e+000
         vertex -3.295210e+000 1.300000e+002 7.289828e+000
      endloop
   endfacet
   facet normal 0.000000e+000 1.000000e+000 0.000000e+000
      outer loop
         vertex -2.471407e+000 1.300000e+002 5.467371e+000
         vertex -3.295210e+000 1.300000e+002 7.289828e+000
         vertex -1.511868e+000 1.300000e+002 5.806397e+000
      endloop
   endfacet
   facet normal 0.000000e+000 1.000000e+000 0.000000e+000
      outer loop
         vertex -1.511868e+000 1.300000e+002 5.806397e+000
         vertex -3.295210e+000 1.300000e+002 7.289828e+000
         vertex -2.015824e+000 1.300000e+002 7.741863e+000
      endloop
   endfacet
   facet normal 0.000000e+000 1.000000e+000 0.000000e+000
      outer loop
         vertex -1.511868e+000 1.300000e+002 5.806397e+000
         vertex -2.015824e+000 1.300000e+002 7.741863e+000
         vertex -5.088356e-001 1.300000e+002 5.978385e+000
      endloop
   endfacet
   facet normal 0.000000e+000 1.000000e+000 0.000000e+000
      outer loop
         vertex -5.088356e-001 1.300000e+002 5.978385e+000
         vertex -2.015824e+000 1.300000e+002 7.741863e+000
         vertex -6.784474e-001 1.300000e+002 7.971179e+000
      endloop
   endfacet
   facet normal 0.000000e+000 1.000000e+000 0.000000e+000
      outer loop
         vertex -5.088356e-001 1.300000e+002 5.978385e+000
         vertex -6.784474e-001 1.300000e+002 7.971179e+000
         vertex 2.204364e-015 1.300000e+002 6.000000e+000
      endloop
   endfacet
   facet normal 0.000000e+000 1.000000e+000 0.000000e+000
      outer loop
         vertex 2.204364e-015 1.300000e+002 6.000000e+000
         vertex -6.784474e-001 1.300000e+002 7.971179e+000
         vertex 9.797175e-016 1.300000e+002 8.000000e+000
      endloop
   endfacet
   facet normal 0.000000e+000 1.000000e+000 0.000000e+000
      outer loop
         vertex 2.204364e-015 1.300000e+002 6.000000e+000
         vertex 9.797175e-016 1.300000e+002 8.000000e+000
         vertex 5.088356e-001 1.300000e+002 5.978385e+000
      endloop
   endfacet
   facet normal 0.000000e+000 1.000000e+000 0.000000e+000
      outer loop
         vertex 5.088356e-001 1.300000e+002 5.978385e+000
         vertex 9.797175e-016 1.300000e+002 8.000000e+000
         vertex 6.784474e-001 1.300000e+002 7.971179e+000
      endloop
   endfacet
   facet normal 0.000000e+000 1.000000e+000 0.000000e+000
      outer loop
         vertex 5.088356e-001 1.300000e+002 5.978385e+000
         vertex 6.784474e-001 1.300000e+002 7.971179e+000
         vertex 1.511868e+000 1.300000e+002 5.806397e+000
      endloop
   endfacet
   facet normal 0.000000e+000 1.000000e+000 0.000000e+000
      outer loop
         vertex 1.511868e+000 1.300000e+002 5.806397e+000
         vertex 6.784474e-001 1.300000e+002 7.971179e+000
         vertex 2.015824e+000 1.300000e+002 7.741863e+000
      endloop
   endfacet
   facet normal 0.000000e+000 1.000000e+000 0.000000e+000
      outer loop
         vertex 1.511868e+000 1.300000e+002 5.806397e+000
         vertex 2.015824e+000 1.300000e+002 7.741863e+000
         vertex 2.471407e+000 1.300000e+002 5.467371e+000
      endloop
   endfacet
   facet normal 0.000000e+000 1.000000e+000 0.000000e+000
      outer loop
         vertex 2.471407e+000 1.300000e+002 5.467371e+000
         vertex 2.015824e+000 1.300000e+002 7.741863e+000
         vertex 3.295210e+000 1.300000e+002 7.289828e+000
      endloop
   endfacet
   facet normal 0.000000e+000 1.000000e+000 0.000000e+000
      outer loop
         vertex 2.471407e+000 1.300000e+002 5.467371e+000
         vertex 3.295210e+000 1.300000e+002 7.289828e+000
         vertex 3.359849e+000 1.300000e+002 4.971058e+000
      endloop
   endfacet
   facet normal 0.000000e+000 1.000000e+000 0.000000e+000
      outer loop
         vertex 3.359849e+000 1.300000e+002 4.971058e+000
         vertex 3.295210e+000 1.300000e+002 7.289828e+000
         vertex 4.479798e+000 1.300000e+002 6.628077e+000
      endloop
   endfacet
   facet normal 0.000000e+000 1.000000e+000 0.000000e+000
      outer loop
         vertex 3.359849e+000 1.300000e+002 4.971058e+000
         vertex 4.479798e+000 1.300000e+002 6.628077e+000
         vertex 4.151633e+000 1.300000e+002 4.331737e+000
      endloop
   endfacet
   facet normal 0.000000e+000 1.000000e+000 0.000000e+000
      outer loop
         vertex 4.151633e+000 1.300000e+002 4.331737e+000
         vertex 4.479798e+000 1.300000e+002 6.628077e+000
         vertex 5.535511e+000 1.300000e+002 5.775649e+000
      endloop
   endfacet
   facet normal 0.000000e+000 1.000000e+000 0.000000e+000
      outer loop
         vertex 4.151633e+000 1.300000e+002 4.331737e+000
         vertex 5.535511e+000 1.300000e+002 5.775649e+000
         vertex 4.823983e+000 1.300000e+002 3.567799e+000
      endloop
   endfacet
   facet normal 0.000000e+000 1.000000e+000 0.000000e+000
      outer loop
         vertex 4.823983e+000 1.300000e+002 3.567799e+000
         vertex 5.535511e+000 1.300000e+002 5.775649e+000
         vertex 6.431977e+000 1.300000e+002 4.757065e+000
      endloop
   endfacet
   facet normal 0.000000e+000 1.000000e+000 0.000000e+000
      outer loop
         vertex 4.823983e+000 1.300000e+002 3.567799e+000
         vertex 6.431977e+000 1.300000e+002 4.757065e+000
         vertex 5.357555e+000 1.300000e+002 2.701222e+000
      endloop
   endfacet
   facet normal 0.000000e+000 1.000000e+000 0.000000e+000
      outer loop
         vertex 5.357555e+000 1.300000e+002 2.701222e+000
         vertex 6.431977e+000 1.300000e+002 4.757065e+000
         vertex 7.143407e+000 1.300000e+002 3.601630e+000
      endloop
   endfacet
   facet normal 0.000000e+000 1.000000e+000 0.000000e+000
      outer loop
         vertex 5.357555e+000 1.300000e+002 2.701222e+000
         vertex 7.143407e+000 1.300000e+002 3.601630e+000
         vertex 5.737000e+000 1.300000e+002 1.756937e+000
      endloop
   endfacet
   facet normal 0.000000e+000 1.000000e+000 0.000000e+000
      outer loop
         vertex 5.737000e+000 1.300000e+002 1.756937e+000
         vertex 7.143407e+000 1.300000e+002 3.601630e+000
         vertex 7.649333e+000 1.300000e+002 2.342582e+000
      endloop
   endfacet
   facet normal 0.000000e+000 1.000000e+000 0.000000e+000
      outer loop
         vertex 5.737000e+000 1.300000e+002 1.756937e+000
         vertex 7.649333e+000 1.300000e+002 2.342582e+000
         vertex 5.951403e+000 1.300000e+002 7.621069e-001
      endloop
   endfacet
   facet normal 0.000000e+000 1.000000e+000 0.000000e+000
      outer loop
         vertex 5.951403e+000 1.300000e+002 7.621069e-001
         vertex 7.649333e+000 1.300000e+002 2.342582e+000
         vertex 7.935204e+000 1.300000e+002 1.016142e+000
      endloop
   endfacet
   facet normal 0.000000e+000 1.000000e+000 0.000000e+000
      outer loop
         vertex 5.951403e+000 1.300000e+002 7.621069e-001
         vertex 7.935204e+000 1.300000e+002 1.016142e+000
         vertex 5.994594e+000 1.300000e+002 -2.546472e-001
      endloop
   endfacet
   facet normal 0.000000e+000 1.000000e+000 0.000000e+000
      outer loop
         vertex 5.994594e+000 1.300000e+002 -2.546472e-001
         vertex 7.935204e+000 1.300000e+002 1.016142e+000
         vertex 7.992792e+000 1.300000e+002 -3.395296e-001
      endloop
   endfacet
   facet normal 0.000000e+000 1.000000e+000 0.000000e+000
      outer loop
         vertex 5.994594e+000 1.300000e+002 -2.546472e-001
         vertex 7.992792e+000 1.300000e+002 -3.395296e-001
         vertex 5.865331e+000 1.300000e+002 -1.264076e+000
      endloop
   endfacet
   facet normal 0.000000e+000 1.000000e+000 0.000000e+000
      outer loop
         vertex 5.865331e+000 1.300000e+002 -1.264076e+000
         vertex 7.992792e+000 1.300000e+002 -3.395296e-001
         vertex 7.820442e+000 1.300000e+002 -1.685434e+000
      endloop
   endfacet
   facet normal 0.000000e+000 1.000000e+000 0.000000e+000
      outer loop
         vertex 5.865331e+000 1.300000e+002 -1.264076e+000
         vertex 7.820442e+000 1.300000e+002 -1.685434e+000
         vertex 5.567334e+000 1.300000e+002 -2.237139e+000
      endloop
   endfacet
   facet normal 0.000000e+000 1.000000e+000 0.000000e+000
      outer loop
         vertex 5.567334e+000 1.300000e+002 -2.237139e+000
         vertex 7.820442e+000 1.300000e+002 -1.685434e+000
         vertex 7.423112e+000 1.300000e+002 -2.982852e+000
      endloop
   endfacet
   facet normal 0.000000e+000 1.000000e+000 0.000000e+000
      outer loop
         vertex 5.567334e+000 1.300000e+002 -2.237139e+000
         vertex 7.423112e+000 1.300000e+002 -2.982852e+000
         vertex 5.109175e+000 1.300000e+002 -3.145844e+000
      endloop
   endfacet
   facet normal 0.000000e+000 1.000000e+000 0.000000e+000
      outer loop
         vertex 5.109175e+000 1.300000e+002 -3.145844e+000
         vertex 7.423112e+000 1.300000e+002 -2.982852e+000
         vertex 6.812233e+000 1.300000e+002 -4.194458e+000
      endloop
   endfacet
   facet normal 0.000000e+000 -1.000000e+000 0.000000e+000
      outer loop
         vertex 1.998839e+000 0.000000e+000 -5.657265e+000
         vertex 2.665118e+000 0.000000e+000 -7.543019e+000
         vertex 2.926170e+000 0.000000e+000 -5.238085e+000
      endloop
   endfacet
   facet normal 0.000000e+000 -1.000000e+000 0.000000e+000
      outer loop
         vertex 2.926170e+000 0.000000e+000 -5.238085e+000
         vertex 2.665118e+000 0.000000e+000 -7.543019e+000
         vertex 3.901560e+000 0.000000e+000 -6.984113e+000
      endloop
   endfacet
   facet normal 0.000000e+000 -1.000000e+000 0.000000e+000
      outer loop
         vertex 2.926170e+000 0.000000e+000 -5.238085e+000
         vertex 3.901560e+000 0.000000e+000 -6.984113e+000
         vertex 3.769320e+000 0.000000e+000 -4.668214e+000
      endloop
   endfacet
   facet normal 0.000000e+000 -1.000000e+000 0.000000e+000
      outer loop
         vertex 3.769320e+000 0.000000e+000 -4.668214e+000
         vertex 3.901560e+000 0.000000e+000 -6.984113e+000
         vertex 5.025760e+000 0.000000e+000 -6.224286e+000
      endloop
   endfacet
   facet normal 0.000000e+000 -1.000000e+000 0.000000e+000
      outer loop
         vertex 3.769320e+000 0.000000e+000 -4.668214e+000
         vertex 5.025760e+000 0.000000e+000 -6.224286e+000
         vertex 4.504034e+000 0.000000e+000 -3.964048e+000
      endloop
   endfacet
   facet normal 0.000000e+000 -1.000000e+000 0.000000e+000
      outer loop
         vertex 4.504034e+000 0.000000e+000 -3.964048e+000
         vertex 5.025760e+000 0.000000e+000 -6.224286e+000
         vertex 6.005378e+000 0.000000e+000 -5.285398e+000
      endloop
   endfacet
   facet normal 0.000000e+000 -1.000000e+000 0.000000e+000
      outer loop
         vertex 4.504034e+000 0.000000e+000 -3.964048e+000
         vertex 6.005378e+000 0.000000e+000 -5.285398e+000
         vertex 5.109175e+000 0.000000e+000 -3.145844e+000
      endloop
   endfacet
   facet normal 0.000000e+000 -1.000000e+000 0.000000e+000
      outer loop
         vertex 5.109175e+000 0.000000e+000 -3.145844e+000
         vertex 6.005378e+000 0.000000e+000 -5.285398e+000
         vertex 6.812233e+000 0.000000e+000 -4.194458e+000
      endloop
   endfacet
   facet normal 0.000000e+000 -1.000000e+000 0.000000e+000
      outer loop
         vertex 5.109175e+000 0.000000e+000 -3.145844e+000
         vertex 6.812233e+000 0.000000e+000 -4.194458e+000
         vertex 5.567334e+000 0.000000e+000 -2.237139e+000
      endloop
   endfacet
   facet normal 0.000000e+000 -1.000000e+000 0.000000e+000
      outer loop
         vertex 5.567334e+000 0.000000e+000 -2.237139e+000
         vertex 6.812233e+000 0.000000e+000 -4.194458e+000
         vertex 7.423112e+000 0.000000e+000 -2.982852e+000
      endloop
   endfacet
   facet normal 0.000000e+000 -1.000000e+000 0.000000e+000
      outer loop
         vertex 5.567334e+000 0.000000e+000 -2.237139e+000
         vertex 7.423112e+000 0.000000e+000 -2.982852e+000
         vertex 5.865331e+000 0.000000e+000 -1.264076e+000
      endloop
   endfacet
   facet normal 0.000000e+000 -1.000000e+000 0.000000e+000
      outer loop
         vertex 5.865331e+000 0.000000e+000 -1.264076e+000
         vertex 7.423112e+000 0.000000e+000 -2.982852e+000
         vertex 7.820442e+000 0.000000e+000 -1.685434e+000
      endloop
   endfacet
   facet normal 0.000000e+000 -1.000000e+000 0.000000e+000
      outer loop
         vertex 5.865331e+000 0.000000e+000 -1.264076e+000
         vertex 7.820442e+000 0.000000e+000 -1.685434e+000
         vertex 5.994594e+000 0.000000e+000 -2.546472e-001
      endloop
   endfacet
   facet normal 0.000000e+000 -1.000000e+000 0.000000e+000
      outer loop
         vertex 5.994594e+000 0.000000e+000 -2.546472e-001
         vertex 7.820442e+000 0.000000e+000 -1.685434e+000
         vertex 7.992792e+000 0.000000e+000 -3.395296e-001
      endloop
   endfacet
   facet normal 0.000000e+000 -1.000000e+000 0.000000e+000
      outer loop
         vertex 5.994594e+000 0.000000e+000 -2.546472e-001
         vertex 7.992792e+000 0.000000e+000 -3.395296e-001
         vertex 5.951403e+000 0.000000e+000 7.621069e-001
      endloop
   endfacet
   facet normal 0.000000e+000 -1.000000e+000 0.000000e+000
      outer loop
         vertex 5.951403e+000 0.000000e+000 7.621069e-001
         vertex 7.992792e+000 0.000000e+000 -3.395296e-001
         vertex 7.935204e+000 0.000000e+000 1.016142e+000
      endloop
   endfacet
   facet normal 0.000000e+000 -1.000000e+000 0.000000e+000
      outer loop
         vertex 5.951403e+000 0.000000e+000 7.621069e-001
         vertex 7.935204e+000 0.000000e+000 1.016142e+000
         vertex 5.737000e+000 0.000000e+000 1.756937e+000
      endloop
   endfacet
   facet normal 0.000000e+000 -1.000000e+000 0.000000e+000
      outer loop
         vertex 5.737000e+000 0.000000e+000 1.756937e+000
         vertex 7.935204e+000 0.000000e+000 1.016142e+000
         vertex 7.649333e+000 0.000000e+000 2.342582e+000
      endloop
   endfacet
   facet normal 0.000000e+000 -1.000000e+000 0.000000e+000
      outer loop
         vertex 5.737000e+000 0.000000e+000 1.756937e+000
         vertex 7.649333e+000 0.000000e+000 2.342582e+000
         vertex 5.357555e+000 0.000000e+000 2.701222e+000
      endloop
   endfacet
   facet normal 0.000000e+000 -1.000000e+000 0.000000e+000
      outer loop
         vertex 5.357555e+000 0.000000e+000 2.701222e+000
         vertex 7.649333e+000 0.000000e+000 2.342582e+000
         vertex 7.143407e+000 0.000000e+000 3.601630e+000
      endloop
   endfacet
   facet normal 0.000000e+000 -1.000000e+000 0.000000e+000
      outer loop
         vertex 5.357555e+000 0.000000e+000 2.701222e+000
         vertex 7.143407e+000 0.000000e+000 3.601630e+000
         vertex 4.823983e+000 0.000000e+000 3.567799e+000
      endloop
   endfacet
   facet normal 0.000000e+000 -1.000000e+000 0.000000e+000
      outer loop
         vertex 4.823983e+000 0.000000e+000 3.567799e+000
         vertex 7.143407e+000 0.000000e+000 3.601630e+000
         vertex 6.431977e+000 0.000000e+000 4.757065e+000
      endloop
   endfacet
   facet normal 0.000000e+000 -1.000000e+000 0.000000e+000
      outer loop
         vertex 4.823983e+000 0.000000e+000 3.567799e+000
         vertex 6.431977e+000 0.000000e+000 4.757065e+000
         vertex 4.151633e+000 0.000000e+000 4.331737e+000
      endloop
   endfacet
   facet normal 0.000000e+000 -1.000000e+000 0.000000e+000
      outer loop
         vertex 4.151633e+000 0.000000e+000 4.331737e+000
         vertex 6.431977e+000 0.000000e+000 4.757065e+000
         vertex 5.535511e+000 0.000000e+000 5.775649e+000
      endloop
   endfacet
   facet normal 0.000000e+000 -1.000000e+000 0.000000e+000
      outer loop
         vertex 4.151633e+000 0.000000e+000 4.331737e+000
         vertex 5.535511e+000 0.000000e+000 5.775649e+000
         vertex 3.359849e+000 0.000000e+000 4.971058e+000
      endloop
   endfacet
   facet normal 0.000000e+000 -1.000000e+000 0.000000e+000
      outer loop
         vertex 3.359849e+000 0.000000e+000 4.971058e+000
         vertex 5.535511e+000 0.000000e+000 5.775649e+000
         vertex 4.479798e+000 0.000000e+000 6.628077e+000
      endloop
   endfacet
   facet normal 0.000000e+000 -1.000000e+000 0.000000e+000
      outer loop
         vertex 3.359849e+000 0.000000e+000 4.971058e+000
         vertex 4.479798e+000 0.000000e+000 6.628077e+000
         vertex 2.471407e+000 0.000000e+000 5.467371e+000
      endloop
   endfacet
   facet normal 0.000000e+000 -1.000000e+000 0.000000e+000
      outer loop
         vertex 2.471407e+000 0.000000e+000 5.467371e+000
         vertex 4.479798e+000 0.000000e+000 6.628077e+000
         vertex 3.295210e+000 0.000000e+000 7.289828e+000
      endloop
   endfacet
   facet normal 0.000000e+000 -1.000000e+000 0.000000e+000
      outer loop
         vertex 2.471407e+000 0.000000e+000 5.467371e+000
         vertex 3.295210e+000 0.000000e+000 7.289828e+000
         vertex 1.511868e+000 0.000000e+000 5.806397e+000
      endloop
   endfacet
   facet normal 0.000000e+000 -1.000000e+000 0.000000e+000
      outer loop
         vertex 1.511868e+000 0.000000e+000 5.806397e+000
         vertex 3.295210e+000 0.000000e+000 7.289828e+000
         vertex 2.015824e+000 0.000000e+000 7.741863e+000
      endloop
   endfacet
   facet normal 0.000000e+000 -1.000000e+000 0.000000e+000
      outer loop
         vertex 1.511868e+000 0.000000e+000 5.806397e+000
         vertex 2.015824e+000 0.000000e+000 7.741863e+000
         vertex 5.088356e-001 0.000000e+000 5.978385e+000
      endloop
   endfacet
   facet normal 0.000000e+000 -1.000000e+000 0.000000e+000
      outer loop
         vertex 5.088356e-001 0.000000e+000 5.978385e+000
         vertex 2.015824e+000 0.000000e+000 7.741863e+000
         vertex 6.784474e-001 0.000000e+000 7.971179e+000
      endloop
   endfacet
   facet normal 0.000000e+000 -1.000000e+000 0.000000e+000
      outer loop
         vertex 5.088356e-001 0.000000e+000 5.978385e+000
         vertex 6.784474e-001 0.000000e+000 7.971179e+000
         vertex 7.347881e-016 0.000000e+000 6.000000e+000
      endloop
   endfacet
   facet normal 0.000000e+000 -1.000000e+000 0.000000e+000
      outer loop
         vertex 7.347881e-016 0.000000e+000 6.000000e+000
         vertex 6.784474e-001 0.000000e+000 7.971179e+000
         vertex 2.939152e-015 0.000000e+000 8.000000e+000
      endloop
   endfacet
   facet normal 0.000000e+000 -1.000000e+000 0.000000e+000
      outer loop
         vertex 7.347881e-016 0.000000e+000 6.000000e+000
         vertex 2.939152e-015 0.000000e+000 8.000000e+000
         vertex -5.088356e-001 0.000000e+000 5.978385e+000
      endloop
   endfacet
   facet normal 0.000000e+000 -1.000000e+000 0.000000e+000
      outer loop
         vertex -5.088356e-001 0.000000e+000 5.978385e+000
         vertex 2.939152e-015 0.000000e+000 8.000000e+000
         vertex -6.784474e-001 0.000000e+000 7.971179e+000
      endloop
   endfacet
   facet normal 0.000000e+000 -1.000000e+000 0.000000e+000
      outer loop
         vertex -5.088356e-001 0.000000e+000 5.978385e+000
         vertex -6.784474e-001 0.000000e+000 7.971179e+000
         vertex -1.511868e+000 0.000000e+000 5.806397e+000
      endloop
   endfacet
   facet normal 0.000000e+000 -1.000000e+000 0.000000e+000
      outer loop
         vertex -1.511868e+000 0.000000e+000 5.806397e+000
         vertex -6.784474e-001 0.000000e+000 7.971179e+000
         vertex -2.015824e+000 0.000000e+000 7.741863e+000
      endloop
   endfacet
   facet normal 0.000000e+000 -1.000000e+000 0.000000e+000
      outer loop
         vertex -1.511868e+000 0.000000e+000 5.806397e+000
         vertex -2.015824e+000 0.000000e+000 7.741863e+000
         vertex -2.471407e+000 0.000000e+000 5.467371e+000
      endloop
   endfacet
   facet normal 0.000000e+000 -1.000000e+000 0.000000e+000
      outer loop
         vertex -2.471407e+000 0.000000e+000 5.467371e+000
         vertex -2.015824e+000 0.000000e+000 7.741863e+000
         vertex -3.295210e+000 0.000000e+000 7.289828e+000
      endloop
   endfacet
   facet normal 0.000000e+000 -1.000000e+000 0.000000e+000
      outer loop
         vertex -2.471407e+000 0.000000e+000 5.467371e+000
         vertex -3.295210e+000 0.000000e+000 7.289828e+000
         vertex -3.359849e+000 0.000000e+000 4.971058e+000
      endloop
   endfacet
   facet normal 0.000000e+000 -1.000000e+000 0.000000e+000
      outer loop
         vertex -3.359849e+000 0.000000e+000 4.971058e+000
         vertex -3.295210e+000 0.000000e+000 7.289828e+000
         vertex -4.479798e+000 0.000000e+000 6.628077e+000
      endloop
   endfacet
   facet normal 0.000000e+000 -1.000000e+000 0.000000e+000
      outer loop
         vertex -3.359849e+000 0.000000e+000 4.971058e+000
         vertex -4.479798e+000 0.000000e+000 6.628077e+000
         vertex -4.151633e+000 0.000000e+000 4.331737e+000
      endloop
   endfacet
   facet normal 0.000000e+000 -1.000000e+000 0.000000e+000
      outer loop
         vertex -4.151633e+000 0.000000e+000 4.331737e+000
         vertex -4.479798e+000 0.000000e+000 6.628077e+000
         vertex -5.535511e+000 0.000000e+000 5.775649e+000
      endloop
   endfacet
   facet normal 0.000000e+000 -1.000000e+000 0.000000e+000
      outer loop
         vertex -4.151633e+000 0.000000e+000 4.331737e+000
         vertex -5.535511e+000 0.000000e+000 5.775649e+000
         vertex -4.823983e+000 0.000000e+000 3.567799e+000
      endloop
   endfacet
   facet normal 0.000000e+000 -1.000000e+000 0.000000e+000
      outer loop
         vertex -4.823983e+000 0.000000e+000 3.567799e+000
         vertex -5.535511e+000 0.000000e+000 5.775649e+000
         vertex -6.431977e+000 0.000000e+000 4.757065e+000
      endloop
   endfacet
   facet normal 0.000000e+000 -1.000000e+000 0.000000e+000
      outer loop
         vertex -4.823983e+000 0.000000e+000 3.567799e+000
         vertex -6.431977e+000 0.000000e+000 4.757065e+000
         vertex -5.357555e+000 0.000000e+000 2.701222e+000
      endloop
   endfacet
   facet normal 0.000000e+000 -1.000000e+000 0.000000e+000
      outer loop
         vertex -5.357555e+000 0.000000e+000 2.701222e+000
         vertex -6.431977e+000 0.000000e+000 4.757065e+000
         vertex -7.143407e+000 0.000000e+000 3.601630e+000
      endloop
   endfacet
   facet normal 0.000000e+000 -1.000000e+000 0.000000e+000
      outer loop
         vertex -5.357555e+000 0.000000e+000 2.701222e+000
         vertex -7.143407e+000 0.000000e+000 3.601630e+000
         vertex -5.737000e+000 0.000000e+000 1.756937e+000
      endloop
   endfacet
   facet normal 0.000000e+000 -1.000000e+000 0.000000e+000
      outer loop
         vertex -5.737000e+000 0.000000e+000 1.756937e+000
         vertex -7.143407e+000 0.000000e+000 3.601630e+000
         vertex -7.649333e+000 0.000000e+000 2.342582e+000
      endloop
   endfacet
   facet normal 0.000000e+000 -1.000000e+000 0.000000e+000
      outer loop
         vertex -5.737000e+000 0.000000e+000 1.756937e+000
         vertex -7.649333e+000 0.000000e+000 2.342582e+000
         vertex -5.951403e+000 0.000000e+000 7.621069e-001
      endloop
   endfacet
   facet normal 0.000000e+000 -1.000000e+000 0.000000e+000
      outer loop
         vertex -5.951403e+000 0.000000e+000 7.621069e-001
         vertex -7.649333e+000 0.000000e+000 2.342582e+000
         vertex -7.935204e+000 0.000000e+000 1.016142e+000
      endloop
   endfacet
   facet normal 0.000000e+000 -1.000000e+000 0.000000e+000
      outer loop
         vertex -5.951403e+000 0.000000e+000 7.621069e-001
         vertex -7.935204e+000 0.000000e+000 1.016142e+000
         vertex -5.994594e+000 0.000000e+000 -2.546472e-001
      endloop
   endfacet
   facet normal 0.000000e+000 -1.000000e+000 0.000000e+000
      outer loop
         vertex -5.994594e+000 0.000000e+000 -2.546472e-001
         vertex -7.935204e+000 0.000000e+000 1.016142e+000
         vertex -7.992792e+000 0.000000e+000 -3.395296e-001
      endloop
   endfacet
   facet normal 0.000000e+000 -1.000000e+000 0.000000e+000
      outer loop
         vertex -5.994594e+000 0.000000e+000 -2.546472e-001
         vertex -7.992792e+000 0.000000e+000 -3.395296e-001
         vertex -5.865331e+000 0.000000e+000 -1.264076e+000
      endloop
   endfacet
   facet normal 0.000000e+000 -1.000000e+000 0.000000e+000
      outer loop
         vertex -5.865331e+000 0.000000e+000 -1.264076e+000
         vertex -7.992792e+000 0.000000e+000 -3.395296e-001
         vertex -7.820442e+000 0.000000e+000 -1.685434e+000
      endloop
   endfacet
   facet normal 0.000000e+000 -1.000000e+000 0.000000e+000
      outer loop
         vertex -5.865331e+000 0.000000e+000 -1.264076e+000
         vertex -7.820442e+000 0.000000e+000 -1.685434e+000
         vertex -5.567334e+000 0.000000e+000 -2.237139e+000
      endloop
   endfacet
   facet normal 0.000000e+000 -1.000000e+000 0.000000e+000
      outer loop
         vertex -5.567334e+000 0.000000e+000 -2.237139e+000
         vertex -7.820442e+000 0.000000e+000 -1.685434e+000
         vertex -7.423112e+000 0.000000e+000 -2.982852e+000
      endloop
   endfacet
   facet normal 0.000000e+000 -1.000000e+000 0.000000e+000
      outer loop
         vertex -5.567334e+000 0.000000e+000 -2.237139e+000
         vertex -7.423112e+000 0.000000e+000 -2.982852e+000
         vertex -5.109175e+000 0.000000e+000 -3.145844e+000
      endloop
   endfacet
   facet normal 0.000000e+000 -1.000000e+000 0.000000e+000
      outer loop
         vertex -5.109175e+000 0.000000e+000 -3.145844e+000
         vertex -7.423112e+000 0.000000e+000 -2.982852e+000
         vertex -6.812233e+000 0.000000e+000 -4.194458e+000
      endloop
   endfacet
   facet normal 0.000000e+000 -1.000000e+000 0.000000e+000
      outer loop
         vertex -5.109175e+000 0.000000e+000 -3.145844e+000
         vertex -6.812233e+000 0.000000e+000 -4.194458e+000
         vertex -4.504034e+000 0.000000e+000 -3.964048e+000
      endloop
   endfacet
   facet normal 0.000000e+000 -1.000000e+000 0.000000e+000
      outer loop
         vertex -4.504034e+000 0.000000e+000 -3.964048e+000
         vertex -6.812233e+000 0.000000e+000 -4.194458e+000
         vertex -6.005378e+000 0.000000e+000 -5.285398e+000
      endloop
   endfacet
   facet normal 0.000000e+000 -1.000000e+000 0.000000e+000
      outer loop
         vertex -4.504034e+000 0.000000e+000 -3.964048e+000
         vertex -6.005378e+000 0.000000e+000 -5.285398e+000
         vertex -3.769320e+000 0.000000e+000 -4.668214e+000
      endloop
   endfacet
   facet normal 0.000000e+000 -1.000000e+000 0.000000e+000
      outer loop
         vertex -3.769320e+000 0.000000e+000 -4.668214e+000
         vertex -6.005378e+000 0.000000e+000 -5.285398e+000
         vertex -5.025760e+000 0.000000e+000 -6.224286e+000
      endloop
   endfacet
   facet normal 0.000000e+000 -1.000000e+000 0.000000e+000
      outer loop
         vertex -3.769320e+000 0.000000e+000 -4.668214e+000
         vertex -5.025760e+000 0.000000e+000 -6.224286e+000
         vertex -2.926170e+000 0.000000e+000 -5.238085e+000
      endloop
   endfacet
   facet normal 0.000000e+000 -1.000000e+000 0.000000e+000
      outer loop
         vertex -2.926170e+000 0.000000e+000 -5.238085e+000
         vertex -5.025760e+000 0.000000e+000 -6.224286e+000
         vertex -3.901560e+000 0.000000e+000 -6.984113e+000
      endloop
   endfacet
   facet normal 0.000000e+000 -1.000000e+000 0.000000e+000
      outer loop
         vertex -2.926170e+000 0.000000e+000 -5.238085e+000
         vertex -3.901560e+000 0.000000e+000 -6.984113e+000
         vertex -1.998839e+000 0.000000e+000 -5.657265e+000
      endloop
   endfacet
   facet normal 0.000000e+000 -1.000000e+000 0.000000e+000
      outer loop
         vertex -1.998839e+000 0.000000e+000 -5.657265e+000
         vertex -3.901560e+000 0.000000e+000 -6.984113e+000
         vertex -2.665118e+000 0.000000e+000 -7.543019e+000
      endloop
   endfacet
   facet normal 0.000000e+000 -1.000000e+000 0.000000e+000
      outer loop
         vertex -1.998839e+000 0.000000e+000 -5.657265e+000
         vertex -2.665118e+000 0.000000e+000 -7.543019e+000
         vertex -1.014005e+000 0.000000e+000 -5.913695e+000
      endloop
   endfacet
   facet normal 0.000000e+000 -1.000000e+000 0.000000e+000
      outer loop
         vertex -1.014005e+000 0.000000e+000 -5.913695e+000
         vertex -2.665118e+000 0.000000e+000 -7.543019e+000
         vertex -1.352007e+000 0.000000e+000 -7.884927e+000
      endloop
   endfacet
   facet normal 0.000000e+000 -1.000000e+000 0.000000e+000
      outer loop
         vertex -1.014005e+000 0.000000e+000 -5.913695e+000
         vertex -1.352007e+000 0.000000e+000 -7.884927e+000
         vertex 0.000000e+000 0.000000e+000 -6.000000e+000
      endloop
   endfacet
   facet normal 0.000000e+000 -1.000000e+000 0.000000e+000
      outer loop
         vertex 0.000000e+000 0.000000e+000 -6.000000e+000
         vertex -1.352007e+000 0.000000e+000 -7.884927e+000
         vertex 0.000000e+000 0.000000e+000 -8.000000e+000
      endloop
   endfacet
   facet normal 0.000000e+000 -1.000000e+000 0.000000e+000
      outer loop
         vertex 0.000000e+000 0.000000e+000 -6.000000e+000
         vertex 0.000000e+000 0.000000e+000 -8.000000e+000
         vertex 1.014005e+000 0.000000e+000 -5.913695e+000
      endloop
   endfacet
   facet normal 0.000000e+000 -1.000000e+000 0.000000e+000
      outer loop
         vertex 1.014005e+000 0.000000e+000 -5.913695e+000
         vertex 0.000000e+000 0.000000e+000 -8.000000e+000
         vertex 1.352007e+000 0.000000e+000 -7.884927e+000
      endloop
   endfacet
   facet normal 0.000000e+000 -1.000000e+000 0.000000e+000
      outer loop
         vertex 1.014005e+000 0.000000e+000 -5.913695e+000
         vertex 1.352007e+000 0.000000e+000 -7.884927e+000
         vertex 1.998839e+000 0.000000e+000 -5.657265e+000
      endloop
   endfacet
   facet normal 0.000000e+000 -1.000000e+000 0.000000e+000
      outer loop
         vertex 1.998839e+000 0.000000e+000 -5.657265e+000
         vertex 1.352007e+000 0.000000e+000 -7.884927e+000
         vertex 2.665118e+000 0.000000e+000 -7.543019e+000
      endloop
   endfacet
endsolid